<svg xmlns="http://www.w3.org/2000/svg" xmlns:xlink="http://www.w3.org/1999/xlink" width="500" zoomAndPan="magnify" viewBox="0 0 375 374.999991" height="500" preserveAspectRatio="xMidYMid meet" version="1.0"><defs><filter x="0%" y="0%" width="100%" height="100%" id="d29679f466"><feColorMatrix values="0 0 0 0 1 0 0 0 0 1 0 0 0 0 1 0 0 0 1 0" color-interpolation-filters="sRGB"/></filter><mask id="fcbd7da517"><g filter="url(#d29679f466)"><rect x="-37.5" width="450" fill="#000000" y="-37.499999" height="449.999989" fill-opacity="0.6196"/></g></mask><clipPath id="b773897332"><path d="M 0 47.332031 L 1 47.332031 L 1 235.582031 L 0 235.582031 Z M 0 47.332031 " clip-rule="nonzero"/></clipPath><clipPath id="482eb730b8"><path d="M 10 47.332031 L 11 47.332031 L 11 235.582031 L 10 235.582031 Z M 10 47.332031 " clip-rule="nonzero"/></clipPath><clipPath id="bde5998ea0"><path d="M 20 47.332031 L 21 47.332031 L 21 235.582031 L 20 235.582031 Z M 20 47.332031 " clip-rule="nonzero"/></clipPath><clipPath id="9266797d3c"><path d="M 30 47.332031 L 31 47.332031 L 31 235.582031 L 30 235.582031 Z M 30 47.332031 " clip-rule="nonzero"/></clipPath><clipPath id="b0680be198"><path d="M 40 47.332031 L 41 47.332031 L 41 235.582031 L 40 235.582031 Z M 40 47.332031 " clip-rule="nonzero"/></clipPath><clipPath id="b8e9732a32"><path d="M 50 47.332031 L 51 47.332031 L 51 235.582031 L 50 235.582031 Z M 50 47.332031 " clip-rule="nonzero"/></clipPath><clipPath id="3b22cd558b"><path d="M 60 47.332031 L 61 47.332031 L 61 235.582031 L 60 235.582031 Z M 60 47.332031 " clip-rule="nonzero"/></clipPath><clipPath id="4dd75f6674"><path d="M 70 47.332031 L 71 47.332031 L 71 235.582031 L 70 235.582031 Z M 70 47.332031 " clip-rule="nonzero"/></clipPath><clipPath id="34afa99f8d"><path d="M 80 47.332031 L 81 47.332031 L 81 235.582031 L 80 235.582031 Z M 80 47.332031 " clip-rule="nonzero"/></clipPath><clipPath id="5d3c76fece"><path d="M 90 47.332031 L 91 47.332031 L 91 235.582031 L 90 235.582031 Z M 90 47.332031 " clip-rule="nonzero"/></clipPath><clipPath id="03105c66a3"><path d="M 100 47.332031 L 101 47.332031 L 101 235.582031 L 100 235.582031 Z M 100 47.332031 " clip-rule="nonzero"/></clipPath><clipPath id="46e1d584ea"><path d="M 110 47.332031 L 111 47.332031 L 111 235.582031 L 110 235.582031 Z M 110 47.332031 " clip-rule="nonzero"/></clipPath><clipPath id="9a8640c2d3"><path d="M 120 47.332031 L 121 47.332031 L 121 235.582031 L 120 235.582031 Z M 120 47.332031 " clip-rule="nonzero"/></clipPath><clipPath id="f68ddf35cb"><path d="M 130 47.332031 L 131 47.332031 L 131 235.582031 L 130 235.582031 Z M 130 47.332031 " clip-rule="nonzero"/></clipPath><clipPath id="b8b1edd1b1"><path d="M 140 47.332031 L 141 47.332031 L 141 235.582031 L 140 235.582031 Z M 140 47.332031 " clip-rule="nonzero"/></clipPath><clipPath id="2ca12b1115"><path d="M 150 47.332031 L 151 47.332031 L 151 235.582031 L 150 235.582031 Z M 150 47.332031 " clip-rule="nonzero"/></clipPath><clipPath id="197be5cad9"><path d="M 160 47.332031 L 161 47.332031 L 161 235.582031 L 160 235.582031 Z M 160 47.332031 " clip-rule="nonzero"/></clipPath><clipPath id="e5a573b51f"><path d="M 170 47.332031 L 171 47.332031 L 171 235.582031 L 170 235.582031 Z M 170 47.332031 " clip-rule="nonzero"/></clipPath><clipPath id="d7c6c42b63"><path d="M 180 47.332031 L 181 47.332031 L 181 235.582031 L 180 235.582031 Z M 180 47.332031 " clip-rule="nonzero"/></clipPath><clipPath id="3b16d6f055"><path d="M 190 47.332031 L 191 47.332031 L 191 235.582031 L 190 235.582031 Z M 190 47.332031 " clip-rule="nonzero"/></clipPath><clipPath id="854c704ae4"><path d="M 200 47.332031 L 201 47.332031 L 201 235.582031 L 200 235.582031 Z M 200 47.332031 " clip-rule="nonzero"/></clipPath><clipPath id="213cea1769"><path d="M 210 47.332031 L 212 47.332031 L 212 235.582031 L 210 235.582031 Z M 210 47.332031 " clip-rule="nonzero"/></clipPath><clipPath id="0347dea96e"><path d="M 220 47.332031 L 222 47.332031 L 222 235.582031 L 220 235.582031 Z M 220 47.332031 " clip-rule="nonzero"/></clipPath><clipPath id="8fa0644ff8"><path d="M 230 47.332031 L 232 47.332031 L 232 235.582031 L 230 235.582031 Z M 230 47.332031 " clip-rule="nonzero"/></clipPath><clipPath id="e01731ad9f"><path d="M 240 47.332031 L 242 47.332031 L 242 235.582031 L 240 235.582031 Z M 240 47.332031 " clip-rule="nonzero"/></clipPath><clipPath id="c834e46c41"><path d="M 250 47.332031 L 252 47.332031 L 252 235.582031 L 250 235.582031 Z M 250 47.332031 " clip-rule="nonzero"/></clipPath><clipPath id="08fa3dcef0"><path d="M 261 47.332031 L 262 47.332031 L 262 235.582031 L 261 235.582031 Z M 261 47.332031 " clip-rule="nonzero"/></clipPath><clipPath id="7acaf2ecbf"><path d="M 271 47.332031 L 272 47.332031 L 272 235.582031 L 271 235.582031 Z M 271 47.332031 " clip-rule="nonzero"/></clipPath><clipPath id="67977e72ad"><path d="M 281 47.332031 L 282 47.332031 L 282 235.582031 L 281 235.582031 Z M 281 47.332031 " clip-rule="nonzero"/></clipPath><clipPath id="5b21ad7bf3"><path d="M 290 47.332031 L 291 47.332031 L 291 235.582031 L 290 235.582031 Z M 290 47.332031 " clip-rule="nonzero"/></clipPath><clipPath id="88d41f690f"><path d="M 299 47.332031 L 301 47.332031 L 301 235.582031 L 299 235.582031 Z M 299 47.332031 " clip-rule="nonzero"/></clipPath><clipPath id="605b8608aa"><path d="M 309 47.332031 L 310 47.332031 L 310 235.582031 L 309 235.582031 Z M 309 47.332031 " clip-rule="nonzero"/></clipPath><clipPath id="e337533701"><path d="M 318 47.332031 L 319 47.332031 L 319 235.582031 L 318 235.582031 Z M 318 47.332031 " clip-rule="nonzero"/></clipPath><clipPath id="ec47021e8c"><path d="M 327 47.332031 L 329 47.332031 L 329 235.582031 L 327 235.582031 Z M 327 47.332031 " clip-rule="nonzero"/></clipPath><clipPath id="7c48e7cbc6"><path d="M 337 47.332031 L 338 47.332031 L 338 235.582031 L 337 235.582031 Z M 337 47.332031 " clip-rule="nonzero"/></clipPath><clipPath id="69acab2828"><path d="M 346 47.332031 L 347 47.332031 L 347 235.582031 L 346 235.582031 Z M 346 47.332031 " clip-rule="nonzero"/></clipPath><clipPath id="80b935c948"><path d="M 356 47.332031 L 357 47.332031 L 357 235.582031 L 356 235.582031 Z M 356 47.332031 " clip-rule="nonzero"/></clipPath><clipPath id="7cedc87063"><path d="M 365 47.332031 L 366 47.332031 L 366 235.582031 L 365 235.582031 Z M 365 47.332031 " clip-rule="nonzero"/></clipPath><clipPath id="988d8aeab0"><path d="M 374 47.332031 L 374.996094 47.332031 L 374.996094 235.582031 L 374 235.582031 Z M 374 47.332031 " clip-rule="nonzero"/></clipPath><clipPath id="300b6ea1a1"><path d="M 0 231 L 374.996094 231 L 374.996094 232 L 0 232 Z M 0 231 " clip-rule="nonzero"/></clipPath><clipPath id="6a5452bfbc"><path d="M 0 221 L 374.996094 221 L 374.996094 222 L 0 222 Z M 0 221 " clip-rule="nonzero"/></clipPath><clipPath id="dd7475a84a"><path d="M 0 211 L 374.996094 211 L 374.996094 212 L 0 212 Z M 0 211 " clip-rule="nonzero"/></clipPath><clipPath id="ee0558aa48"><path d="M 0 201 L 374.996094 201 L 374.996094 202 L 0 202 Z M 0 201 " clip-rule="nonzero"/></clipPath><clipPath id="7a7a0ee5c1"><path d="M 0 191 L 374.996094 191 L 374.996094 192 L 0 192 Z M 0 191 " clip-rule="nonzero"/></clipPath><clipPath id="c8bcc4c69e"><path d="M 0 181 L 374.996094 181 L 374.996094 182 L 0 182 Z M 0 181 " clip-rule="nonzero"/></clipPath><clipPath id="bbd3927535"><path d="M 0 171 L 374.996094 171 L 374.996094 172 L 0 172 Z M 0 171 " clip-rule="nonzero"/></clipPath><clipPath id="d797ea7bd2"><path d="M 0 161 L 374.996094 161 L 374.996094 162 L 0 162 Z M 0 161 " clip-rule="nonzero"/></clipPath><clipPath id="04363fd4ad"><path d="M 0 151 L 374.996094 151 L 374.996094 152 L 0 152 Z M 0 151 " clip-rule="nonzero"/></clipPath><clipPath id="5614eed2f6"><path d="M 0 141 L 374.996094 141 L 374.996094 142 L 0 142 Z M 0 141 " clip-rule="nonzero"/></clipPath><clipPath id="87fb753a93"><path d="M 0 131 L 374.996094 131 L 374.996094 132 L 0 132 Z M 0 131 " clip-rule="nonzero"/></clipPath><clipPath id="052c37eac7"><path d="M 0 121 L 374.996094 121 L 374.996094 122 L 0 122 Z M 0 121 " clip-rule="nonzero"/></clipPath><clipPath id="36554dea4e"><path d="M 0 111 L 374.996094 111 L 374.996094 112 L 0 112 Z M 0 111 " clip-rule="nonzero"/></clipPath><clipPath id="3ab37dde41"><path d="M 0 101 L 374.996094 101 L 374.996094 102 L 0 102 Z M 0 101 " clip-rule="nonzero"/></clipPath><clipPath id="278fbde9e2"><path d="M 0 91 L 374.996094 91 L 374.996094 92 L 0 92 Z M 0 91 " clip-rule="nonzero"/></clipPath><clipPath id="b3abab7f44"><path d="M 0 80 L 374.996094 80 L 374.996094 82 L 0 82 Z M 0 80 " clip-rule="nonzero"/></clipPath><clipPath id="5a86bb966b"><path d="M 0 70 L 374.996094 70 L 374.996094 72 L 0 72 Z M 0 70 " clip-rule="nonzero"/></clipPath><clipPath id="8e9887ddfc"><path d="M 0 60 L 374.996094 60 L 374.996094 62 L 0 62 Z M 0 60 " clip-rule="nonzero"/></clipPath><clipPath id="70fdef6c00"><path d="M 0 50 L 374.996094 50 L 374.996094 52 L 0 52 Z M 0 50 " clip-rule="nonzero"/></clipPath><clipPath id="60598f9bf3"><rect x="0" width="375" y="0" height="282"/></clipPath></defs><g mask="url(#fcbd7da517)"><g transform="matrix(1, 0, 0, 1, 0, 37)"><g clip-path="url(#60598f9bf3)"><g clip-path="url(#b773897332)"><path fill="#d45f5a" d="M 0.03125 281.851562 L 0.03125 0.789062 L 0.230469 0.789062 L 0.230469 281.851562 Z M 0.03125 281.851562 " fill-opacity="1" fill-rule="nonzero"/></g><g clip-path="url(#482eb730b8)"><path fill="#d45f5a" d="M 10.070312 281.851562 L 10.070312 0.789062 L 10.269531 0.789062 L 10.269531 281.851562 Z M 10.070312 281.851562 " fill-opacity="1" fill-rule="nonzero"/></g><g clip-path="url(#bde5998ea0)"><path fill="#d45f5a" d="M 20.109375 281.851562 L 20.109375 0.789062 L 20.308594 0.789062 L 20.308594 281.851562 Z M 20.109375 281.851562 " fill-opacity="1" fill-rule="nonzero"/></g><g clip-path="url(#9266797d3c)"><path fill="#d45f5a" d="M 30.148438 281.851562 L 30.148438 0.789062 L 30.347656 0.789062 L 30.347656 281.851562 Z M 30.148438 281.851562 " fill-opacity="1" fill-rule="nonzero"/></g><g clip-path="url(#b0680be198)"><path fill="#d45f5a" d="M 40.179688 281.851562 L 40.179688 0.789062 L 40.382812 0.789062 L 40.382812 281.851562 Z M 40.179688 281.851562 " fill-opacity="1" fill-rule="nonzero"/></g><g clip-path="url(#b8e9732a32)"><path fill="#d45f5a" d="M 50.21875 281.851562 L 50.21875 0.789062 L 50.421875 0.789062 L 50.421875 281.851562 Z M 50.21875 281.851562 " fill-opacity="1" fill-rule="nonzero"/></g><g clip-path="url(#3b22cd558b)"><path fill="#d45f5a" d="M 60.257812 281.851562 L 60.257812 0.789062 L 60.460938 0.789062 L 60.460938 281.851562 Z M 60.257812 281.851562 " fill-opacity="1" fill-rule="nonzero"/></g><g clip-path="url(#4dd75f6674)"><path fill="#d45f5a" d="M 70.296875 281.851562 L 70.296875 0.789062 L 70.5 0.789062 L 70.5 281.851562 Z M 70.296875 281.851562 " fill-opacity="1" fill-rule="nonzero"/></g><g clip-path="url(#34afa99f8d)"><path fill="#d45f5a" d="M 80.335938 281.851562 L 80.335938 0.789062 L 80.539062 0.789062 L 80.539062 281.851562 Z M 80.335938 281.851562 " fill-opacity="1" fill-rule="nonzero"/></g><g clip-path="url(#5d3c76fece)"><path fill="#d45f5a" d="M 90.375 281.851562 L 90.375 0.789062 L 90.578125 0.789062 L 90.578125 281.851562 Z M 90.375 281.851562 " fill-opacity="1" fill-rule="nonzero"/></g><g clip-path="url(#03105c66a3)"><path fill="#d45f5a" d="M 100.410156 281.851562 L 100.410156 0.789062 L 100.609375 0.789062 L 100.609375 281.851562 Z M 100.410156 281.851562 " fill-opacity="1" fill-rule="nonzero"/></g><g clip-path="url(#46e1d584ea)"><path fill="#d45f5a" d="M 110.449219 281.851562 L 110.449219 0.789062 L 110.648438 0.789062 L 110.648438 281.851562 Z M 110.449219 281.851562 " fill-opacity="1" fill-rule="nonzero"/></g><g clip-path="url(#9a8640c2d3)"><path fill="#d45f5a" d="M 120.488281 281.851562 L 120.488281 0.789062 L 120.6875 0.789062 L 120.6875 281.851562 Z M 120.488281 281.851562 " fill-opacity="1" fill-rule="nonzero"/></g><g clip-path="url(#f68ddf35cb)"><path fill="#d45f5a" d="M 130.523438 281.851562 L 130.523438 0.789062 L 130.726562 0.789062 L 130.726562 281.851562 Z M 130.523438 281.851562 " fill-opacity="1" fill-rule="nonzero"/></g><g clip-path="url(#b8b1edd1b1)"><path fill="#d45f5a" d="M 140.5625 281.851562 L 140.5625 0.789062 L 140.765625 0.789062 L 140.765625 281.851562 Z M 140.5625 281.851562 " fill-opacity="1" fill-rule="nonzero"/></g><g clip-path="url(#2ca12b1115)"><path fill="#d45f5a" d="M 150.601562 281.851562 L 150.601562 0.789062 L 150.804688 0.789062 L 150.804688 281.851562 Z M 150.601562 281.851562 " fill-opacity="1" fill-rule="nonzero"/></g><g clip-path="url(#197be5cad9)"><path fill="#d45f5a" d="M 160.636719 281.851562 L 160.636719 0.789062 L 160.839844 0.789062 L 160.839844 281.851562 Z M 160.636719 281.851562 " fill-opacity="1" fill-rule="nonzero"/></g><g clip-path="url(#e5a573b51f)"><path fill="#d45f5a" d="M 170.675781 281.851562 L 170.675781 0.789062 L 170.878906 0.789062 L 170.878906 281.851562 Z M 170.675781 281.851562 " fill-opacity="1" fill-rule="nonzero"/></g><g clip-path="url(#d7c6c42b63)"><path fill="#d45f5a" d="M 180.714844 281.851562 L 180.714844 0.789062 L 180.917969 0.789062 L 180.917969 281.851562 Z M 180.714844 281.851562 " fill-opacity="1" fill-rule="nonzero"/></g><g clip-path="url(#3b16d6f055)"><path fill="#d45f5a" d="M 190.753906 281.851562 L 190.753906 0.789062 L 190.957031 0.789062 L 190.957031 281.851562 Z M 190.753906 281.851562 " fill-opacity="1" fill-rule="nonzero"/></g><g clip-path="url(#854c704ae4)"><path fill="#d45f5a" d="M 200.792969 281.851562 L 200.792969 0.789062 L 200.996094 0.789062 L 200.996094 281.851562 Z M 200.792969 281.851562 " fill-opacity="1" fill-rule="nonzero"/></g><g clip-path="url(#213cea1769)"><path fill="#d45f5a" d="M 210.832031 281.851562 L 210.832031 0.789062 L 211.03125 0.789062 L 211.03125 281.851562 Z M 210.832031 281.851562 " fill-opacity="1" fill-rule="nonzero"/></g><g clip-path="url(#0347dea96e)"><path fill="#d45f5a" d="M 220.863281 281.851562 L 220.863281 0.789062 L 221.066406 0.789062 L 221.066406 281.851562 Z M 220.863281 281.851562 " fill-opacity="1" fill-rule="nonzero"/></g><g clip-path="url(#8fa0644ff8)"><path fill="#d45f5a" d="M 230.902344 281.851562 L 230.902344 0.789062 L 231.105469 0.789062 L 231.105469 281.851562 Z M 230.902344 281.851562 " fill-opacity="1" fill-rule="nonzero"/></g><g clip-path="url(#e01731ad9f)"><path fill="#d45f5a" d="M 240.941406 281.851562 L 240.941406 0.789062 L 241.144531 0.789062 L 241.144531 281.851562 Z M 240.941406 281.851562 " fill-opacity="1" fill-rule="nonzero"/></g><g clip-path="url(#c834e46c41)"><path fill="#d45f5a" d="M 250.980469 281.851562 L 250.980469 0.789062 L 251.183594 0.789062 L 251.183594 281.851562 Z M 250.980469 281.851562 " fill-opacity="1" fill-rule="nonzero"/></g><g clip-path="url(#08fa3dcef0)"><path fill="#d45f5a" d="M 261.019531 281.851562 L 261.019531 0.789062 L 261.222656 0.789062 L 261.222656 281.851562 Z M 261.019531 281.851562 " fill-opacity="1" fill-rule="nonzero"/></g><g clip-path="url(#7acaf2ecbf)"><path fill="#d45f5a" d="M 271.058594 281.851562 L 271.058594 0.789062 L 271.261719 0.789062 L 271.261719 281.851562 Z M 271.058594 281.851562 " fill-opacity="1" fill-rule="nonzero"/></g><g clip-path="url(#67977e72ad)"><path fill="#d45f5a" d="M 281.09375 281.851562 L 281.09375 0.789062 L 281.296875 0.789062 L 281.296875 281.851562 Z M 281.09375 281.851562 " fill-opacity="1" fill-rule="nonzero"/></g><g clip-path="url(#5b21ad7bf3)"><path fill="#d45f5a" d="M 290.460938 281.851562 L 290.460938 0.789062 L 290.664062 0.789062 L 290.664062 281.851562 Z M 290.460938 281.851562 " fill-opacity="1" fill-rule="nonzero"/></g><g clip-path="url(#88d41f690f)"><path fill="#d45f5a" d="M 299.835938 281.851562 L 299.835938 0.789062 L 300.035156 0.789062 L 300.035156 281.851562 Z M 299.835938 281.851562 " fill-opacity="1" fill-rule="nonzero"/></g><g clip-path="url(#605b8608aa)"><path fill="#d45f5a" d="M 309.203125 281.851562 L 309.203125 0.789062 L 309.40625 0.789062 L 309.40625 281.851562 Z M 309.203125 281.851562 " fill-opacity="1" fill-rule="nonzero"/></g><g clip-path="url(#e337533701)"><path fill="#d45f5a" d="M 318.570312 281.851562 L 318.570312 0.789062 L 318.773438 0.789062 L 318.773438 281.851562 Z M 318.570312 281.851562 " fill-opacity="1" fill-rule="nonzero"/></g><g clip-path="url(#ec47021e8c)"><path fill="#d45f5a" d="M 327.941406 281.851562 L 327.941406 0.789062 L 328.140625 0.789062 L 328.140625 281.851562 Z M 327.941406 281.851562 " fill-opacity="1" fill-rule="nonzero"/></g><g clip-path="url(#7c48e7cbc6)"><path fill="#d45f5a" d="M 337.308594 281.851562 L 337.308594 0.789062 L 337.511719 0.789062 L 337.511719 281.851562 Z M 337.308594 281.851562 " fill-opacity="1" fill-rule="nonzero"/></g><g clip-path="url(#69acab2828)"><path fill="#d45f5a" d="M 346.675781 281.851562 L 346.675781 0.789062 L 346.878906 0.789062 L 346.878906 281.851562 Z M 346.675781 281.851562 " fill-opacity="1" fill-rule="nonzero"/></g><g clip-path="url(#80b935c948)"><path fill="#d45f5a" d="M 356.042969 281.851562 L 356.042969 0.789062 L 356.246094 0.789062 L 356.246094 281.851562 Z M 356.042969 281.851562 " fill-opacity="1" fill-rule="nonzero"/></g><g clip-path="url(#7cedc87063)"><path fill="#d45f5a" d="M 365.414062 281.851562 L 365.414062 0.789062 L 365.613281 0.789062 L 365.613281 281.851562 Z M 365.414062 281.851562 " fill-opacity="1" fill-rule="nonzero"/></g><g clip-path="url(#988d8aeab0)"><path fill="#d45f5a" d="M 374.78125 281.851562 L 374.78125 0.789062 L 374.984375 0.789062 L 374.984375 281.851562 Z M 374.78125 281.851562 " fill-opacity="1" fill-rule="nonzero"/></g><g clip-path="url(#300b6ea1a1)"><path fill="#d45f5a" d="M 0.128906 231.761719 L 0.128906 231.5625 L 374.925781 231.5625 L 374.925781 231.761719 Z M 0.128906 231.761719 " fill-opacity="1" fill-rule="nonzero"/></g><g clip-path="url(#6a5452bfbc)"><path fill="#d45f5a" d="M 0.128906 221.722656 L 0.128906 221.523438 L 374.925781 221.523438 L 374.925781 221.722656 Z M 0.128906 221.722656 " fill-opacity="1" fill-rule="nonzero"/></g><g clip-path="url(#dd7475a84a)"><path fill="#d45f5a" d="M 0.128906 211.683594 L 0.128906 211.484375 L 374.925781 211.484375 L 374.925781 211.683594 Z M 0.128906 211.683594 " fill-opacity="1" fill-rule="nonzero"/></g><g clip-path="url(#ee0558aa48)"><path fill="#d45f5a" d="M 0.128906 201.644531 L 0.128906 201.445312 L 374.925781 201.445312 L 374.925781 201.644531 Z M 0.128906 201.644531 " fill-opacity="1" fill-rule="nonzero"/></g><g clip-path="url(#7a7a0ee5c1)"><path fill="#d45f5a" d="M 0.128906 191.609375 L 0.128906 191.40625 L 374.925781 191.40625 L 374.925781 191.609375 Z M 0.128906 191.609375 " fill-opacity="1" fill-rule="nonzero"/></g><g clip-path="url(#c8bcc4c69e)"><path fill="#d45f5a" d="M 0.128906 181.574219 L 0.128906 181.371094 L 374.925781 181.371094 L 374.925781 181.574219 Z M 0.128906 181.574219 " fill-opacity="1" fill-rule="nonzero"/></g><g clip-path="url(#bbd3927535)"><path fill="#d45f5a" d="M 0.128906 171.535156 L 0.128906 171.332031 L 374.925781 171.332031 L 374.925781 171.535156 Z M 0.128906 171.535156 " fill-opacity="1" fill-rule="nonzero"/></g><g clip-path="url(#d797ea7bd2)"><path fill="#d45f5a" d="M 0.128906 161.496094 L 0.128906 161.292969 L 374.925781 161.292969 L 374.925781 161.496094 Z M 0.128906 161.496094 " fill-opacity="1" fill-rule="nonzero"/></g><g clip-path="url(#04363fd4ad)"><path fill="#d45f5a" d="M 0.128906 151.457031 L 0.128906 151.253906 L 374.925781 151.253906 L 374.925781 151.457031 Z M 0.128906 151.457031 " fill-opacity="1" fill-rule="nonzero"/></g><g clip-path="url(#5614eed2f6)"><path fill="#d45f5a" d="M 0.128906 141.417969 L 0.128906 141.214844 L 374.925781 141.214844 L 374.925781 141.417969 Z M 0.128906 141.417969 " fill-opacity="1" fill-rule="nonzero"/></g><g clip-path="url(#87fb753a93)"><path fill="#d45f5a" d="M 0.128906 131.378906 L 0.128906 131.175781 L 374.925781 131.175781 L 374.925781 131.378906 Z M 0.128906 131.378906 " fill-opacity="1" fill-rule="nonzero"/></g><g clip-path="url(#052c37eac7)"><path fill="#d45f5a" d="M 0.128906 121.34375 L 0.128906 121.144531 L 374.925781 121.144531 L 374.925781 121.34375 Z M 0.128906 121.34375 " fill-opacity="1" fill-rule="nonzero"/></g><g clip-path="url(#36554dea4e)"><path fill="#d45f5a" d="M 0.128906 111.308594 L 0.128906 111.105469 L 374.925781 111.105469 L 374.925781 111.308594 Z M 0.128906 111.308594 " fill-opacity="1" fill-rule="nonzero"/></g><g clip-path="url(#3ab37dde41)"><path fill="#d45f5a" d="M 0.128906 101.269531 L 0.128906 101.066406 L 374.925781 101.066406 L 374.925781 101.269531 Z M 0.128906 101.269531 " fill-opacity="1" fill-rule="nonzero"/></g><g clip-path="url(#278fbde9e2)"><path fill="#d45f5a" d="M 0.128906 91.230469 L 0.128906 91.027344 L 374.925781 91.027344 L 374.925781 91.230469 Z M 0.128906 91.230469 " fill-opacity="1" fill-rule="nonzero"/></g><g clip-path="url(#b3abab7f44)"><path fill="#d45f5a" d="M 0.128906 81.191406 L 0.128906 80.988281 L 374.925781 80.988281 L 374.925781 81.191406 Z M 0.128906 81.191406 " fill-opacity="1" fill-rule="nonzero"/></g><g clip-path="url(#5a86bb966b)"><path fill="#d45f5a" d="M 0.128906 71.152344 L 0.128906 70.949219 L 374.925781 70.949219 L 374.925781 71.152344 Z M 0.128906 71.152344 " fill-opacity="1" fill-rule="nonzero"/></g><g clip-path="url(#8e9887ddfc)"><path fill="#d45f5a" d="M 0.128906 61.117188 L 0.128906 60.914062 L 374.925781 60.914062 L 374.925781 61.117188 Z M 0.128906 61.117188 " fill-opacity="1" fill-rule="nonzero"/></g><g clip-path="url(#70fdef6c00)"><path fill="#d45f5a" d="M 0.128906 51.078125 L 0.128906 50.875 L 374.925781 50.875 L 374.925781 51.078125 Z M 0.128906 51.078125 " fill-opacity="1" fill-rule="nonzero"/></g></g></g></g></svg>