<svg xmlns="http://www.w3.org/2000/svg" xmlns:xlink="http://www.w3.org/1999/xlink" width="500" zoomAndPan="magnify" viewBox="0 0 375 374.999991" height="500" preserveAspectRatio="xMidYMid meet" version="1.0"><defs><clipPath id="7de03d6ec2"><path d="M 106.742188 116.320312 L 256.742188 116.320312 L 256.742188 237.070312 L 106.742188 237.070312 Z M 106.742188 116.320312 " clip-rule="nonzero"/></clipPath></defs><g clip-path="url(#7de03d6ec2)"><path fill="#000000" d="M 142.453125 127.492188 C 136.695312 138.4375 132.9375 156.390625 132.9375 176.695312 C 132.9375 197 136.695312 214.949219 142.453125 225.894531 C 138.757812 232.921875 134.238281 237.070312 129.355469 237.070312 C 116.871094 237.070312 106.75 210.039062 106.75 176.695312 C 106.75 143.351562 116.871094 116.320312 129.355469 116.320312 C 134.238281 116.320312 138.757812 120.464844 142.453125 127.492188 Z M 181.734375 116.320312 C 176.851562 116.320312 172.335938 120.464844 168.640625 127.492188 C 164.945312 120.464844 160.429688 116.320312 155.546875 116.320312 C 150.664062 116.320312 146.148438 120.464844 142.453125 127.492188 C 148.207031 138.4375 151.964844 156.390625 151.964844 176.695312 C 151.964844 197 148.207031 214.949219 142.453125 225.894531 C 146.148438 232.921875 150.664062 237.070312 155.546875 237.070312 C 160.429688 237.070312 164.945312 232.921875 168.640625 225.894531 C 172.335938 232.921875 176.851562 237.070312 181.734375 237.070312 C 186.617188 237.070312 191.136719 232.921875 194.832031 225.894531 C 189.074219 214.949219 185.316406 197 185.316406 176.695312 C 185.316406 156.390625 189.074219 138.4375 194.832031 127.492188 C 191.136719 120.464844 186.617188 116.320312 181.734375 116.320312 Z M 168.640625 225.894531 C 162.886719 214.949219 159.128906 197 159.128906 176.695312 C 159.128906 156.390625 162.886719 138.4375 168.640625 127.492188 C 174.394531 138.4375 178.152344 156.390625 178.152344 176.695312 C 178.152344 197 174.394531 214.949219 168.640625 225.894531 Z M 234.113281 116.320312 C 229.230469 116.320312 224.714844 120.464844 221.019531 127.492188 C 217.324219 120.464844 212.808594 116.320312 207.925781 116.320312 C 203.042969 116.320312 198.527344 120.464844 194.832031 127.492188 C 200.585938 138.4375 204.34375 156.390625 204.34375 176.695312 C 204.34375 197 200.585938 214.949219 194.832031 225.894531 C 198.527344 232.921875 203.042969 237.070312 207.925781 237.070312 C 212.808594 237.070312 217.324219 232.921875 221.019531 225.894531 C 224.714844 232.921875 229.230469 237.070312 234.113281 237.070312 C 246.601562 237.070312 256.722656 210.039062 256.722656 176.695312 C 256.722656 143.351562 246.601562 116.320312 234.113281 116.320312 Z M 221.019531 225.894531 C 215.265625 214.949219 211.507812 197 211.507812 176.695312 C 211.507812 156.390625 215.265625 138.4375 221.019531 127.492188 C 226.773438 138.4375 230.53125 156.390625 230.53125 176.695312 C 230.53125 197 226.773438 214.949219 221.019531 225.894531 Z M 221.019531 225.894531 " fill-opacity="1" fill-rule="nonzero"/></g></svg>