<svg xmlns="http://www.w3.org/2000/svg" xmlns:xlink="http://www.w3.org/1999/xlink" width="500" zoomAndPan="magnify" viewBox="0 0 375 374.999991" height="500" preserveAspectRatio="xMidYMid meet" version="1.0"><defs><clipPath id="dee2d2228b"><path d="M 121 115 L 261 115 L 261 260.523438 L 121 260.523438 Z M 121 115 " clip-rule="nonzero"/></clipPath></defs><g clip-path="url(#dee2d2228b)"><path fill="#000000" d="M 235.871094 213.4375 C 230.726562 210.414062 236.128906 204 238.195312 200.46875 C 242.554688 193.019531 248.269531 185.824219 252.667969 178.386719 C 254.644531 175.039062 259.410156 170.027344 256.941406 166.371094 C 253.453125 161.199219 240.582031 164.011719 232.222656 164.886719 C 227.5625 161.222656 234.371094 153.246094 236.25 150.195312 C 240.585938 143.164062 245.816406 136.308594 249.9375 129.242188 C 251.417969 126.699219 258.761719 118.433594 251.523438 115.917969 C 246.769531 114.269531 237.527344 115.828125 229.492188 116.625 C 234.148438 119.710938 227.824219 126.898438 226.460938 129.242188 C 222.339844 136.308594 217.105469 143.164062 212.773438 150.195312 C 211.121094 152.871094 205.679688 159.339844 207.515625 163.359375 C 202.261719 163.152344 195.664062 164.363281 190.671875 164.886719 C 186.015625 161.222656 192.820312 153.246094 194.703125 150.195312 C 199.035156 143.164062 204.269531 136.308594 208.390625 129.242188 C 209.871094 126.699219 217.214844 118.433594 209.976562 115.917969 C 205.222656 114.269531 195.980469 115.828125 187.945312 116.625 C 192.597656 119.710938 186.273438 126.898438 184.910156 129.242188 C 180.789062 136.308594 175.558594 143.164062 171.222656 150.195312 C 169.527344 152.949219 163.816406 159.714844 166.140625 163.703125 C 160.632812 162.613281 152.234375 164.253906 146.191406 164.886719 C 141.535156 161.222656 148.339844 153.246094 150.222656 150.195312 C 154.554688 143.164062 159.785156 136.308594 163.90625 129.242188 C 165.390625 126.699219 172.730469 118.433594 165.492188 115.917969 C 160.738281 114.269531 151.496094 115.828125 143.460938 116.625 C 148.117188 119.710938 141.792969 126.898438 140.429688 129.242188 C 136.308594 136.308594 131.074219 143.164062 126.742188 150.195312 C 124.191406 154.332031 112.582031 167.519531 132.769531 166.75 C 136.328125 166.613281 141.449219 165.691406 146.367188 165.234375 C 146.78125 165.5625 147.140625 165.9375 147.433594 166.371094 C 149.902344 170.027344 145.136719 175.039062 143.160156 178.386719 C 138.761719 185.824219 133.046875 193.019531 128.6875 200.46875 C 125.945312 205.152344 117.328125 214.914062 135.265625 215.101562 C 140.074219 215.152344 145.355469 214.421875 150.03125 213.96875 C 150.886719 214.980469 151.160156 216.464844 150.667969 218.605469 C 147.308594 233.21875 129.546875 245.609375 128.105469 260.53125 C 135.933594 260.53125 143.757812 260.53125 151.585938 260.53125 C 153.027344 245.609375 170.789062 233.21875 174.148438 218.605469 C 174.550781 216.839844 174.4375 215.523438 173.90625 214.546875 C 175.433594 214.878906 177.351562 215.078125 179.746094 215.101562 C 184.554688 215.152344 189.835938 214.421875 194.515625 213.96875 C 195.367188 214.980469 195.640625 216.464844 195.148438 218.605469 C 191.792969 233.21875 174.03125 245.609375 172.589844 260.53125 C 180.414062 260.53125 188.242188 260.53125 196.066406 260.53125 C 197.507812 245.609375 215.269531 233.21875 218.628906 218.605469 C 218.976562 217.09375 218.941406 215.910156 218.589844 214.984375 C 219.417969 215.050781 220.316406 215.09375 221.296875 215.101562 C 226.101562 215.152344 231.386719 214.421875 236.0625 213.96875 C 236.917969 214.980469 237.191406 216.464844 236.699219 218.605469 C 233.339844 233.21875 215.578125 245.609375 214.136719 260.53125 C 221.964844 260.53125 229.789062 260.53125 237.617188 260.53125 C 239.058594 245.609375 256.820312 233.21875 260.175781 218.605469 C 262.445312 208.726562 248.480469 212.757812 235.871094 213.4375 Z M 173.167969 200.46875 C 171.351562 203.570312 166.960938 208.898438 169.414062 212.199219 C 164.597656 211.585938 157.003906 213.050781 149.839844 213.4375 C 144.699219 210.414062 150.097656 204 152.164062 200.46875 C 156.523438 193.019531 162.238281 185.824219 166.636719 178.386719 C 168.609375 175.046875 173.355469 170.050781 170.929688 166.398438 C 172.5625 166.714844 174.640625 166.851562 177.25 166.75 C 180.808594 166.613281 185.929688 165.691406 190.847656 165.234375 C 191.265625 165.5625 191.625 165.9375 191.914062 166.371094 C 194.382812 170.027344 189.617188 175.039062 187.640625 178.386719 C 183.242188 185.824219 177.527344 193.019531 173.167969 200.46875 Z M 214.71875 200.46875 C 212.925781 203.527344 208.636719 208.742188 210.855469 212.054688 C 206.195312 212.105469 200.117188 213.125 194.324219 213.4375 C 189.179688 210.414062 194.578125 204 196.648438 200.46875 C 201.003906 193.019531 206.722656 185.824219 211.117188 178.386719 C 213.03125 175.152344 217.542969 170.367188 215.617188 166.746094 C 216.578125 166.789062 217.632812 166.792969 218.800781 166.75 C 222.359375 166.613281 227.480469 165.691406 232.398438 165.234375 C 232.8125 165.5625 233.171875 165.9375 233.464844 166.371094 C 235.933594 170.027344 231.167969 175.039062 229.1875 178.386719 C 224.792969 185.824219 219.074219 193.019531 214.71875 200.46875 Z M 214.71875 200.46875 " fill-opacity="1" fill-rule="nonzero"/></g></svg>