<svg xmlns="http://www.w3.org/2000/svg" xmlns:xlink="http://www.w3.org/1999/xlink" width="500" zoomAndPan="magnify" viewBox="0 0 375 374.999991" height="500" preserveAspectRatio="xMidYMid meet" version="1.0"><defs><clipPath id="6670749dd3"><path d="M 88.746094 250.546875 L 238.746094 250.546875 L 238.746094 293.265625 L 88.746094 293.265625 Z M 88.746094 250.546875 " clip-rule="nonzero"/></clipPath></defs><g clip-path="url(#6670749dd3)"><path fill="#1a1a1a" d="M 177.789062 263.335938 C 188.207031 261.738281 199.878906 262.039062 210.992188 261.359375 C 199.957031 258.847656 188.195312 259.417969 176.164062 259.316406 C 166.347656 259.171875 170.046875 257.769531 172.1875 251.507812 C 172.621094 251.195312 173.257812 250.046875 173.761719 250.796875 C 177.019531 252.152344 182.589844 250.835938 186.617188 251.28125 C 197.632812 251.132812 209.023438 251.703125 219.765625 254.691406 C 226.351562 256.703125 233.605469 258.238281 238.679688 263.542969 C 239.058594 266.210938 237.703125 264.851562 237.917969 266.800781 C 237.738281 267.15625 236.140625 266.761719 237.125 267.507812 C 237.402344 268.691406 235.847656 269.296875 235.988281 270.460938 C 234.859375 271.1875 235.417969 272.460938 234.207031 273.171875 C 230.691406 272.921875 227.90625 274.5 224.9375 275.734375 C 213.9375 280.933594 202.863281 285.722656 191.601562 289.980469 C 190.34375 289.90625 182.941406 294.699219 182.980469 292.839844 C 184.046875 290.945312 184.1875 288.621094 185.609375 286.9375 C 185.867188 285.675781 186.164062 283.910156 188.09375 284.140625 C 196.261719 280.085938 205.394531 277.933594 213.464844 273.609375 C 225.378906 269.636719 213.769531 270.757812 209.246094 270.652344 C 188.574219 270.636719 168.367188 272.003906 149.042969 275.324219 C 134.691406 277.3125 121.097656 280.570312 107.535156 284.152344 C 103.460938 285.601562 99.375 287.125 95.199219 288.550781 C 94.269531 289.105469 93.160156 289.671875 92.097656 290.015625 C 91.101562 290.519531 88.089844 293.242188 88.878906 291.222656 C 89.238281 288.875 90.324219 286.691406 90.789062 284.378906 C 94.089844 281.445312 98.230469 280.113281 102.15625 278.640625 C 113 274.292969 124.417969 271.878906 136.023438 269.417969 C 149.410156 266.722656 163.21875 264.261719 177.789062 263.335938 " fill-opacity="1" fill-rule="nonzero"/></g></svg>