<svg xmlns="http://www.w3.org/2000/svg" xmlns:xlink="http://www.w3.org/1999/xlink" width="700" zoomAndPan="magnify" viewBox="0 0 525 525.000007" height="700" preserveAspectRatio="xMidYMid meet" version="1.0"><defs><clipPath id="e46b06305a"><path d="M 8 91 L 201 91 L 201 303 L 8 303 Z M 8 91 " clip-rule="nonzero"/></clipPath><clipPath id="3147df5b4e"><path d="M 98.351562 90.050781 L 200.765625 154.988281 L 104.960938 306.085938 L 2.542969 241.144531 Z M 98.351562 90.050781 " clip-rule="nonzero"/></clipPath><clipPath id="ef8337b59e"><path d="M 98.351562 90.050781 L 200.765625 154.988281 L 104.960938 306.085938 L 2.542969 241.144531 Z M 98.351562 90.050781 " clip-rule="nonzero"/></clipPath><clipPath id="6d3df20323"><path d="M 98.351562 90.050781 L 200.765625 154.988281 L 104.960938 306.085938 L 2.542969 241.144531 Z M 98.351562 90.050781 " clip-rule="nonzero"/></clipPath><clipPath id="bb50be0861"><path d="M 97.824219 87.636719 L 203.171875 154.4375 L 105.488281 308.496094 L 0.136719 241.695312 Z M 97.824219 87.636719 " clip-rule="nonzero"/></clipPath><clipPath id="53c9b7c9b2"><path d="M 97.824219 87.636719 L 203.171875 154.4375 L 105.488281 308.496094 L 0.136719 241.695312 Z M 97.824219 87.636719 " clip-rule="nonzero"/></clipPath><clipPath id="0e10a26dc3"><path d="M 30 139 L 176 139 L 176 272 L 30 272 Z M 30 139 " clip-rule="nonzero"/></clipPath><clipPath id="3cfe906dac"><path d="M 98.351562 90.050781 L 200.765625 154.988281 L 104.960938 306.085938 L 2.542969 241.144531 Z M 98.351562 90.050781 " clip-rule="nonzero"/></clipPath><clipPath id="155cc39e48"><path d="M 98.351562 90.050781 L 200.765625 154.988281 L 104.960938 306.085938 L 2.542969 241.144531 Z M 98.351562 90.050781 " clip-rule="nonzero"/></clipPath><clipPath id="c363a46fd5"><path d="M 98.351562 90.050781 L 200.765625 154.988281 L 104.960938 306.085938 L 2.542969 241.144531 Z M 98.351562 90.050781 " clip-rule="nonzero"/></clipPath><clipPath id="6c2921fa1e"><path d="M 97.824219 87.636719 L 203.171875 154.4375 L 105.488281 308.496094 L 0.136719 241.695312 Z M 97.824219 87.636719 " clip-rule="nonzero"/></clipPath><clipPath id="cb2a1eb04f"><path d="M 97.824219 87.636719 L 203.171875 154.4375 L 105.488281 308.496094 L 0.136719 241.695312 Z M 97.824219 87.636719 " clip-rule="nonzero"/></clipPath><clipPath id="6f263c3201"><path d="M 28 133 L 175 133 L 175 266 L 28 266 Z M 28 133 " clip-rule="nonzero"/></clipPath><clipPath id="83bfaa7562"><path d="M 98.351562 90.050781 L 200.765625 154.988281 L 104.960938 306.085938 L 2.542969 241.144531 Z M 98.351562 90.050781 " clip-rule="nonzero"/></clipPath><clipPath id="d69a2ffeeb"><path d="M 98.351562 90.050781 L 200.765625 154.988281 L 104.960938 306.085938 L 2.542969 241.144531 Z M 98.351562 90.050781 " clip-rule="nonzero"/></clipPath><clipPath id="a3310905e0"><path d="M 98.351562 90.050781 L 200.765625 154.988281 L 104.960938 306.085938 L 2.542969 241.144531 Z M 98.351562 90.050781 " clip-rule="nonzero"/></clipPath><clipPath id="25b77146a2"><path d="M 97.824219 87.636719 L 203.171875 154.4375 L 105.488281 308.496094 L 0.136719 241.695312 Z M 97.824219 87.636719 " clip-rule="nonzero"/></clipPath><clipPath id="2b0c9745a6"><path d="M 97.824219 87.636719 L 203.171875 154.4375 L 105.488281 308.496094 L 0.136719 241.695312 Z M 97.824219 87.636719 " clip-rule="nonzero"/></clipPath><clipPath id="665b21907b"><path d="M 27 132 L 176 132 L 176 266 L 27 266 Z M 27 132 " clip-rule="nonzero"/></clipPath><clipPath id="a4734a4fad"><path d="M 98.351562 90.050781 L 200.765625 154.988281 L 104.960938 306.085938 L 2.542969 241.144531 Z M 98.351562 90.050781 " clip-rule="nonzero"/></clipPath><clipPath id="fa35e9fa2f"><path d="M 98.351562 90.050781 L 200.765625 154.988281 L 104.960938 306.085938 L 2.542969 241.144531 Z M 98.351562 90.050781 " clip-rule="nonzero"/></clipPath><clipPath id="74f0f34a86"><path d="M 98.351562 90.050781 L 200.765625 154.988281 L 104.960938 306.085938 L 2.542969 241.144531 Z M 98.351562 90.050781 " clip-rule="nonzero"/></clipPath><clipPath id="cd0bbaacf2"><path d="M 97.824219 87.636719 L 203.171875 154.4375 L 105.488281 308.496094 L 0.136719 241.695312 Z M 97.824219 87.636719 " clip-rule="nonzero"/></clipPath><clipPath id="437e1b35c4"><path d="M 97.824219 87.636719 L 203.171875 154.4375 L 105.488281 308.496094 L 0.136719 241.695312 Z M 97.824219 87.636719 " clip-rule="nonzero"/></clipPath><clipPath id="a02c15f417"><path d="M 101 201 L 257 201 L 257 363 L 101 363 Z M 101 201 " clip-rule="nonzero"/></clipPath><clipPath id="5eb88029b6"><path d="M 101.578125 235.128906 L 217.082031 198.183594 L 257.902344 325.804688 L 142.398438 362.753906 Z M 101.578125 235.128906 " clip-rule="nonzero"/></clipPath><clipPath id="3b19b8aa75"><path d="M 101.578125 235.128906 L 217.082031 198.183594 L 257.902344 325.804688 L 142.398438 362.753906 Z M 101.578125 235.128906 " clip-rule="nonzero"/></clipPath><clipPath id="aca74eefda"><path d="M 101.578125 235.128906 L 217.082031 198.183594 L 257.902344 325.804688 L 142.398438 362.753906 Z M 101.578125 235.128906 " clip-rule="nonzero"/></clipPath><clipPath id="fe82f2fcab"><path d="M 101.09375 233.621094 L 216.597656 196.675781 L 258.382812 327.3125 L 142.878906 364.257812 Z M 101.09375 233.621094 " clip-rule="nonzero"/></clipPath><clipPath id="03cba79ff2"><path d="M 101.09375 233.621094 L 216.597656 196.675781 L 258.382812 327.3125 L 142.878906 364.257812 Z M 101.09375 233.621094 " clip-rule="nonzero"/></clipPath><clipPath id="7cc5eb30bd"><path d="M 135 227 L 223 227 L 223 337 L 135 337 Z M 135 227 " clip-rule="nonzero"/></clipPath><clipPath id="4ad522959b"><path d="M 101.578125 235.128906 L 217.082031 198.183594 L 257.902344 325.804688 L 142.398438 362.753906 Z M 101.578125 235.128906 " clip-rule="nonzero"/></clipPath><clipPath id="3b7e4b971b"><path d="M 101.578125 235.128906 L 217.082031 198.183594 L 257.902344 325.804688 L 142.398438 362.753906 Z M 101.578125 235.128906 " clip-rule="nonzero"/></clipPath><clipPath id="ef4caf78d7"><path d="M 101.578125 235.128906 L 217.082031 198.183594 L 257.902344 325.804688 L 142.398438 362.753906 Z M 101.578125 235.128906 " clip-rule="nonzero"/></clipPath><clipPath id="812be09c94"><path d="M 101.09375 233.621094 L 216.597656 196.675781 L 258.382812 327.3125 L 142.878906 364.257812 Z M 101.09375 233.621094 " clip-rule="nonzero"/></clipPath><clipPath id="beab0dfe8f"><path d="M 101.09375 233.621094 L 216.597656 196.675781 L 258.382812 327.3125 L 142.878906 364.257812 Z M 101.09375 233.621094 " clip-rule="nonzero"/></clipPath><clipPath id="49d9910c2f"><path d="M 128 221 L 216 221 L 216 331 L 128 331 Z M 128 221 " clip-rule="nonzero"/></clipPath><clipPath id="29dbef401e"><path d="M 101.578125 235.128906 L 217.082031 198.183594 L 257.902344 325.804688 L 142.398438 362.753906 Z M 101.578125 235.128906 " clip-rule="nonzero"/></clipPath><clipPath id="9ac79ed641"><path d="M 101.578125 235.128906 L 217.082031 198.183594 L 257.902344 325.804688 L 142.398438 362.753906 Z M 101.578125 235.128906 " clip-rule="nonzero"/></clipPath><clipPath id="a6b24252c7"><path d="M 101.578125 235.128906 L 217.082031 198.183594 L 257.902344 325.804688 L 142.398438 362.753906 Z M 101.578125 235.128906 " clip-rule="nonzero"/></clipPath><clipPath id="a53d37e397"><path d="M 101.09375 233.621094 L 216.597656 196.675781 L 258.382812 327.3125 L 142.878906 364.257812 Z M 101.09375 233.621094 " clip-rule="nonzero"/></clipPath><clipPath id="571cd6bbfe"><path d="M 101.09375 233.621094 L 216.597656 196.675781 L 258.382812 327.3125 L 142.878906 364.257812 Z M 101.09375 233.621094 " clip-rule="nonzero"/></clipPath><clipPath id="abbe04fc89"><path d="M 205 226 L 353 226 L 353 391 L 205 391 Z M 205 226 " clip-rule="nonzero"/></clipPath><clipPath id="622094622a"><path d="M 227.945312 221.867188 L 353.03125 245.273438 L 325.769531 390.960938 L 200.683594 367.554688 Z M 227.945312 221.867188 " clip-rule="nonzero"/></clipPath><clipPath id="b02b8f6c70"><path d="M 227.945312 221.867188 L 353.03125 245.273438 L 325.769531 390.960938 L 200.683594 367.554688 Z M 227.945312 221.867188 " clip-rule="nonzero"/></clipPath><clipPath id="082c0a92e5"><path d="M 227.945312 221.867188 L 353.03125 245.273438 L 325.769531 390.960938 L 200.683594 367.554688 Z M 227.945312 221.867188 " clip-rule="nonzero"/></clipPath><clipPath id="7bcc835045"><path d="M 227.945312 221.875 L 354.574219 245.570312 L 327.027344 392.792969 L 200.394531 369.097656 Z M 227.945312 221.875 " clip-rule="nonzero"/></clipPath><clipPath id="55fc8b1697"><path d="M 227.945312 221.875 L 354.574219 245.570312 L 327.027344 392.792969 L 200.394531 369.097656 Z M 227.945312 221.875 " clip-rule="nonzero"/></clipPath><clipPath id="0d6aa498b8"><path d="M 232 257 L 326 257 L 326 357 L 232 357 Z M 232 257 " clip-rule="nonzero"/></clipPath><clipPath id="9336c2fdac"><path d="M 227.945312 221.867188 L 353.03125 245.273438 L 325.769531 390.960938 L 200.683594 367.554688 Z M 227.945312 221.867188 " clip-rule="nonzero"/></clipPath><clipPath id="b23d570099"><path d="M 227.945312 221.867188 L 353.03125 245.273438 L 325.769531 390.960938 L 200.683594 367.554688 Z M 227.945312 221.867188 " clip-rule="nonzero"/></clipPath><clipPath id="3bca45d431"><path d="M 227.945312 221.867188 L 353.03125 245.273438 L 325.769531 390.960938 L 200.683594 367.554688 Z M 227.945312 221.867188 " clip-rule="nonzero"/></clipPath><clipPath id="eb6d7fccb4"><path d="M 227.945312 221.875 L 354.574219 245.570312 L 327.027344 392.792969 L 200.394531 369.097656 Z M 227.945312 221.875 " clip-rule="nonzero"/></clipPath><clipPath id="43897d00d8"><path d="M 227.945312 221.875 L 354.574219 245.570312 L 327.027344 392.792969 L 200.394531 369.097656 Z M 227.945312 221.875 " clip-rule="nonzero"/></clipPath><clipPath id="3f1236ab6f"><path d="M 356 284 L 516 284 L 516 439 L 356 439 Z M 356 284 " clip-rule="nonzero"/></clipPath><clipPath id="97e305780e"><path d="M 353.226562 292.964844 L 503.90625 280.28125 L 516.710938 432.453125 L 366.03125 445.136719 Z M 353.226562 292.964844 " clip-rule="nonzero"/></clipPath><clipPath id="c213f66a45"><path d="M 353.226562 292.964844 L 503.90625 280.28125 L 516.710938 432.453125 L 366.03125 445.136719 Z M 353.226562 292.964844 " clip-rule="nonzero"/></clipPath><clipPath id="69864dcf99"><path d="M 353.226562 292.964844 L 503.90625 280.28125 L 516.710938 432.453125 L 366.03125 445.136719 Z M 353.226562 292.964844 " clip-rule="nonzero"/></clipPath><clipPath id="2ef0bae348"><path d="M 353.085938 291.308594 L 503.765625 278.628906 L 516.851562 434.109375 L 366.171875 446.789062 Z M 353.085938 291.308594 " clip-rule="nonzero"/></clipPath><clipPath id="d41cd49c00"><path d="M 353.085938 291.308594 L 503.765625 278.628906 L 516.851562 434.109375 L 366.171875 446.789062 Z M 353.085938 291.308594 " clip-rule="nonzero"/></clipPath><clipPath id="3746608abd"><path d="M 374 304 L 497 304 L 497 416 L 374 416 Z M 374 304 " clip-rule="nonzero"/></clipPath><clipPath id="232909faba"><path d="M 353.226562 292.964844 L 503.90625 280.28125 L 516.710938 432.453125 L 366.03125 445.136719 Z M 353.226562 292.964844 " clip-rule="nonzero"/></clipPath><clipPath id="7bdecfcc38"><path d="M 353.226562 292.964844 L 503.90625 280.28125 L 516.710938 432.453125 L 366.03125 445.136719 Z M 353.226562 292.964844 " clip-rule="nonzero"/></clipPath><clipPath id="7f99dfa40f"><path d="M 353.226562 292.964844 L 503.90625 280.28125 L 516.710938 432.453125 L 366.03125 445.136719 Z M 353.226562 292.964844 " clip-rule="nonzero"/></clipPath><clipPath id="1372af4882"><path d="M 353.085938 291.308594 L 503.765625 278.628906 L 516.851562 434.109375 L 366.171875 446.789062 Z M 353.085938 291.308594 " clip-rule="nonzero"/></clipPath><clipPath id="67e922581b"><path d="M 353.085938 291.308594 L 503.765625 278.628906 L 516.851562 434.109375 L 366.171875 446.789062 Z M 353.085938 291.308594 " clip-rule="nonzero"/></clipPath><clipPath id="ddcfdb5092"><path d="M 383 312 L 505 312 L 505 422 L 383 422 Z M 383 312 " clip-rule="nonzero"/></clipPath><clipPath id="9221b06115"><path d="M 353.226562 292.964844 L 503.90625 280.28125 L 516.710938 432.453125 L 366.03125 445.136719 Z M 353.226562 292.964844 " clip-rule="nonzero"/></clipPath><clipPath id="e4e3ec9e83"><path d="M 353.226562 292.964844 L 503.90625 280.28125 L 516.710938 432.453125 L 366.03125 445.136719 Z M 353.226562 292.964844 " clip-rule="nonzero"/></clipPath><clipPath id="d53c79e5b7"><path d="M 353.226562 292.964844 L 503.90625 280.28125 L 516.710938 432.453125 L 366.03125 445.136719 Z M 353.226562 292.964844 " clip-rule="nonzero"/></clipPath><clipPath id="4ad52d8493"><path d="M 353.085938 291.308594 L 503.765625 278.628906 L 516.851562 434.109375 L 366.171875 446.789062 Z M 353.085938 291.308594 " clip-rule="nonzero"/></clipPath><clipPath id="7f4d33af51"><path d="M 353.085938 291.308594 L 503.765625 278.628906 L 516.851562 434.109375 L 366.171875 446.789062 Z M 353.085938 291.308594 " clip-rule="nonzero"/></clipPath><clipPath id="5aa30e65ad"><path d="M 381 310 L 506 310 L 506 422 L 381 422 Z M 381 310 " clip-rule="nonzero"/></clipPath><clipPath id="daf635bd2b"><path d="M 353.226562 292.964844 L 503.90625 280.28125 L 516.710938 432.453125 L 366.03125 445.136719 Z M 353.226562 292.964844 " clip-rule="nonzero"/></clipPath><clipPath id="c2b180c759"><path d="M 353.226562 292.964844 L 503.90625 280.28125 L 516.710938 432.453125 L 366.03125 445.136719 Z M 353.226562 292.964844 " clip-rule="nonzero"/></clipPath><clipPath id="83dc322ca1"><path d="M 353.226562 292.964844 L 503.90625 280.28125 L 516.710938 432.453125 L 366.03125 445.136719 Z M 353.226562 292.964844 " clip-rule="nonzero"/></clipPath><clipPath id="a386fbc745"><path d="M 353.085938 291.308594 L 503.765625 278.628906 L 516.851562 434.109375 L 366.171875 446.789062 Z M 353.085938 291.308594 " clip-rule="nonzero"/></clipPath><clipPath id="3f2036b1e9"><path d="M 353.085938 291.308594 L 503.765625 278.628906 L 516.851562 434.109375 L 366.171875 446.789062 Z M 353.085938 291.308594 " clip-rule="nonzero"/></clipPath><clipPath id="41b4dcfbbc"><path d="M 276 150 L 457 150 L 457 346 L 276 346 Z M 276 150 " clip-rule="nonzero"/></clipPath><clipPath id="7e17b0a341"><path d="M 276.984375 196.507812 L 421.742188 150.28125 L 469.789062 300.746094 L 325.027344 346.972656 Z M 276.984375 196.507812 " clip-rule="nonzero"/></clipPath><clipPath id="ebf2506c08"><path d="M 276.984375 196.507812 L 421.742188 150.28125 L 469.789062 300.746094 L 325.027344 346.972656 Z M 276.984375 196.507812 " clip-rule="nonzero"/></clipPath><clipPath id="864aa49a78"><path d="M 276.984375 196.507812 L 421.742188 150.28125 L 469.789062 300.746094 L 325.027344 346.972656 Z M 276.984375 196.507812 " clip-rule="nonzero"/></clipPath><clipPath id="fc50e42098"><path d="M 276.398438 194.679688 L 422.992188 147.871094 L 472.203125 301.988281 L 325.613281 348.800781 Z M 276.398438 194.679688 " clip-rule="nonzero"/></clipPath><clipPath id="3e2b46d2ab"><path d="M 276.398438 194.679688 L 422.992188 147.871094 L 472.203125 301.988281 L 325.613281 348.800781 Z M 276.398438 194.679688 " clip-rule="nonzero"/></clipPath><clipPath id="cf180ce626"><path d="M 313 179 L 429 179 L 429 324 L 313 324 Z M 313 179 " clip-rule="nonzero"/></clipPath><clipPath id="eab732322c"><path d="M 276.984375 196.507812 L 421.742188 150.28125 L 469.789062 300.746094 L 325.027344 346.972656 Z M 276.984375 196.507812 " clip-rule="nonzero"/></clipPath><clipPath id="657854756b"><path d="M 276.984375 196.507812 L 421.742188 150.28125 L 469.789062 300.746094 L 325.027344 346.972656 Z M 276.984375 196.507812 " clip-rule="nonzero"/></clipPath><clipPath id="dbb0f8c2e4"><path d="M 276.984375 196.507812 L 421.742188 150.28125 L 469.789062 300.746094 L 325.027344 346.972656 Z M 276.984375 196.507812 " clip-rule="nonzero"/></clipPath><clipPath id="619afbe602"><path d="M 276.398438 194.679688 L 422.992188 147.871094 L 472.203125 301.988281 L 325.613281 348.800781 Z M 276.398438 194.679688 " clip-rule="nonzero"/></clipPath><clipPath id="8d9754e7cf"><path d="M 276.398438 194.679688 L 422.992188 147.871094 L 472.203125 301.988281 L 325.613281 348.800781 Z M 276.398438 194.679688 " clip-rule="nonzero"/></clipPath><clipPath id="c5c475fc73"><path d="M 317 167 L 433 167 L 433 312 L 317 312 Z M 317 167 " clip-rule="nonzero"/></clipPath><clipPath id="4cbfa16339"><path d="M 276.984375 196.507812 L 421.742188 150.28125 L 469.789062 300.746094 L 325.027344 346.972656 Z M 276.984375 196.507812 " clip-rule="nonzero"/></clipPath><clipPath id="11141c8753"><path d="M 276.984375 196.507812 L 421.742188 150.28125 L 469.789062 300.746094 L 325.027344 346.972656 Z M 276.984375 196.507812 " clip-rule="nonzero"/></clipPath><clipPath id="cc9296d518"><path d="M 276.984375 196.507812 L 421.742188 150.28125 L 469.789062 300.746094 L 325.027344 346.972656 Z M 276.984375 196.507812 " clip-rule="nonzero"/></clipPath><clipPath id="718aaf1d63"><path d="M 276.398438 194.679688 L 422.992188 147.871094 L 472.203125 301.988281 L 325.613281 348.800781 Z M 276.398438 194.679688 " clip-rule="nonzero"/></clipPath><clipPath id="37f34584c5"><path d="M 276.398438 194.679688 L 422.992188 147.871094 L 472.203125 301.988281 L 325.613281 348.800781 Z M 276.398438 194.679688 " clip-rule="nonzero"/></clipPath></defs><g clip-path="url(#e46b06305a)"><g clip-path="url(#3147df5b4e)"><g clip-path="url(#ef8337b59e)"><g clip-path="url(#6d3df20323)"><g clip-path="url(#bb50be0861)"><g clip-path="url(#53c9b7c9b2)"><path fill="#c93368" d="M 200.75 154.976562 L 103.519531 302.886719 L 8.851562 245.144531 L 9.378906 244.316406 C 26.195312 220.085938 35.1875 195.132812 49.9375 169.574219 C 64.410156 144.417969 84.636719 118.738281 96.933594 92.578125 L 97.382812 91.617188 Z M 200.75 154.976562 " fill-opacity="1" fill-rule="evenodd"/></g></g></g></g></g></g><g clip-path="url(#0e10a26dc3)"><g clip-path="url(#3cfe906dac)"><g clip-path="url(#155cc39e48)"><g clip-path="url(#c363a46fd5)"><g clip-path="url(#6c2921fa1e)"><g clip-path="url(#cb2a1eb04f)"><path fill="#43464e" d="M 150.917969 150.382812 C 152.761719 151.550781 154.816406 153.019531 157.09375 154.796875 C 159.445312 156.636719 161.683594 158.617188 163.792969 160.726562 C 166 162.929688 168.042969 165.285156 169.902344 167.777344 C 171.71875 170.152344 173.214844 172.746094 174.347656 175.496094 C 175.390625 178.027344 175.929688 180.722656 175.933594 183.441406 C 175.9375 186.191406 175.140625 188.875 173.640625 191.164062 C 172.496094 192.984375 170.914062 194.484375 169.03125 195.53125 C 167.082031 196.617188 164.914062 197.269531 162.675781 197.441406 C 160.195312 197.628906 157.691406 197.398438 155.273438 196.757812 C 149.863281 195.292969 145.007812 192.214844 141.371094 187.941406 C 139.769531 186.035156 138.511719 183.875 137.652344 181.554688 C 136.871094 179.457031 136.546875 177.226562 136.699219 175.011719 C 136.84375 172.859375 137.527344 170.789062 138.683594 168.980469 C 139.679688 167.402344 141.015625 166.066406 142.601562 165.066406 C 144.21875 164.058594 146.019531 163.363281 147.90625 163.011719 C 149.957031 162.609375 152.066406 162.542969 154.148438 162.816406 C 156.4375 163.125 158.675781 163.753906 160.796875 164.683594 C 158.898438 162.683594 156.757812 160.921875 154.425781 159.4375 C 152.625 158.28125 150.660156 157.390625 148.601562 156.804688 C 146.691406 156.242188 144.683594 156.121094 142.734375 156.449219 C 140.609375 156.828125 138.609375 157.695312 136.894531 158.976562 C 134.757812 160.625 132.953125 162.65625 131.574219 164.96875 C 130.457031 166.726562 129.644531 168.664062 129.167969 170.695312 C 128.667969 172.761719 128.371094 174.875 128.28125 177.003906 C 128.164062 179.136719 128.1875 181.273438 128.351562 183.402344 C 128.484375 185.566406 128.695312 187.464844 128.878906 189.242188 L 146.015625 200.109375 L 142.785156 205.207031 L 128.519531 196.160156 L 89.332031 257.960938 L 102 265.992188 L 98.804688 271.027344 L 30.003906 227.402344 L 33.234375 222.308594 L 46.054688 230.433594 L 85.238281 168.632812 L 72.421875 160.507812 L 75.652344 155.410156 L 88.472656 163.539062 L 92.011719 157.953125 C 99.105469 146.765625 107.515625 140.695312 117.234375 139.742188 C 126.957031 138.785156 138.183594 142.332031 150.917969 150.382812 Z M 150.917969 150.382812 " fill-opacity="1" fill-rule="evenodd"/></g></g></g></g></g></g><g clip-path="url(#6f263c3201)"><g clip-path="url(#83bfaa7562)"><g clip-path="url(#d69a2ffeeb)"><g clip-path="url(#a3310905e0)"><g clip-path="url(#25b77146a2)"><g clip-path="url(#2b0c9745a6)"><path fill="#fcc962" d="M 149.898438 143.503906 C 151.710938 144.652344 153.726562 146.101562 155.964844 147.855469 C 158.273438 149.671875 160.460938 151.632812 162.527344 153.722656 C 164.683594 155.902344 166.679688 158.242188 168.492188 160.722656 C 170.261719 163.082031 171.707031 165.667969 172.792969 168.414062 C 173.792969 170.941406 174.292969 173.644531 174.257812 176.375 C 174.210938 179.136719 173.375 181.835938 171.847656 184.148438 C 170.691406 185.988281 169.097656 187.515625 167.214844 188.597656 C 165.269531 189.714844 163.113281 190.398438 160.886719 190.605469 C 158.429688 190.832031 155.953125 190.640625 153.566406 190.042969 C 148.214844 188.640625 143.441406 185.613281 139.894531 181.375 C 138.332031 179.480469 137.113281 177.328125 136.292969 175.007812 C 135.546875 172.914062 135.257812 170.675781 135.4375 168.449219 C 135.613281 166.285156 136.316406 164.191406 137.488281 162.359375 C 138.496094 160.761719 139.84375 159.398438 141.425781 158.375 C 143.046875 157.328125 144.839844 156.585938 146.722656 156.199219 C 148.761719 155.769531 150.851562 155.671875 152.914062 155.917969 C 155.1875 156.195312 157.40625 156.792969 159.503906 157.699219 C 157.648438 155.714844 155.550781 153.976562 153.261719 152.515625 C 151.488281 151.375 149.554688 150.511719 147.519531 149.949219 C 145.628906 149.40625 143.632812 149.308594 141.6875 149.660156 C 139.574219 150.074219 137.582031 150.96875 135.867188 152.28125 C 133.722656 153.964844 131.902344 156.03125 130.503906 158.375 C 129.375 160.15625 128.542969 162.109375 128.042969 164.160156 C 127.519531 166.242188 127.195312 168.371094 127.074219 170.511719 C 126.957031 172.667969 126.972656 174.832031 127.132812 176.984375 C 127.234375 179.15625 127.417969 181.058594 127.578125 182.847656 L 144.378906 193.5 L 141.105469 198.660156 L 127.078125 189.769531 L 87.375 252.386719 L 99.828125 260.28125 L 96.554688 265.445312 L 28.914062 222.558594 L 32.191406 217.394531 L 44.804688 225.394531 L 84.53125 162.746094 L 71.914062 154.746094 L 75.1875 149.582031 L 87.804688 157.582031 L 91.390625 151.925781 C 98.582031 140.585938 107 134.375 116.65625 133.285156 C 126.308594 132.191406 137.390625 135.601562 149.898438 143.503906 Z M 149.898438 143.503906 " fill-opacity="1" fill-rule="evenodd"/></g></g></g></g></g></g><g clip-path="url(#665b21907b)"><g clip-path="url(#a4734a4fad)"><g clip-path="url(#fa35e9fa2f)"><g clip-path="url(#74f0f34a86)"><g clip-path="url(#cd0bbaacf2)"><g clip-path="url(#437e1b35c4)"><path fill="#43464e" d="M 96.804688 265.605469 L 28.4375 222.253906 C 27.882812 221.902344 27.710938 221.175781 28.058594 220.628906 L 31.273438 215.558594 C 31.613281 215.019531 32.335938 214.867188 32.882812 215.210938 C 32.886719 215.214844 32.890625 215.21875 32.894531 215.222656 L 44.628906 222.660156 L 82.398438 163.09375 L 70.667969 155.65625 C 70.117188 155.304688 69.945312 154.589844 70.277344 154.042969 L 73.496094 148.972656 C 73.839844 148.425781 74.570312 148.269531 75.125 148.621094 L 86.859375 156.0625 L 89.757812 151.488281 C 96.972656 140.105469 105.710938 133.824219 115.71875 132.808594 C 125.722656 131.792969 137.183594 135.441406 149.96875 143.546875 C 151.8125 144.71875 153.902344 146.230469 156.183594 148.007812 C 158.550781 149.855469 160.800781 151.847656 162.921875 153.972656 C 165.175781 156.226562 167.269531 158.636719 169.179688 161.1875 C 171.046875 163.625 172.578125 166.292969 173.738281 169.121094 C 174.824219 171.785156 175.390625 174.621094 175.402344 177.476562 C 175.386719 180.425781 174.523438 183.300781 172.910156 185.753906 C 171.640625 187.714844 169.898438 189.320312 167.839844 190.4375 C 165.753906 191.589844 163.4375 192.292969 161.042969 192.496094 C 158.457031 192.667969 155.851562 192.414062 153.335938 191.742188 C 150.542969 191.023438 147.878906 189.859375 145.449219 188.292969 C 142.964844 186.75 140.742188 184.816406 138.875 182.574219 C 137.203125 180.59375 135.875 178.355469 134.953125 175.953125 C 134.15625 173.699219 133.839844 171.316406 134.027344 168.953125 C 134.191406 166.628906 134.933594 164.386719 136.1875 162.429688 C 137.261719 160.710938 138.707031 159.257812 140.421875 158.167969 C 142.144531 157.085938 144.054688 156.324219 146.058594 155.914062 C 148.222656 155.503906 150.445312 155.4375 152.640625 155.722656 C 153.199219 155.789062 153.769531 155.882812 154.355469 156.003906 C 152.074219 154.222656 149.484375 152.867188 146.722656 152.011719 C 145.007812 151.554688 143.21875 151.476562 141.480469 151.789062 C 139.582031 152.152344 137.800781 152.9375 136.261719 154.082031 C 134.253906 155.640625 132.558594 157.558594 131.265625 159.742188 C 130.226562 161.382812 129.46875 163.183594 129.019531 165.078125 C 128.542969 167.070312 128.25 169.109375 128.144531 171.160156 C 128.046875 173.238281 128.066406 175.320312 128.207031 177.402344 C 128.359375 179.253906 128.511719 181.003906 128.707031 182.617188 L 145.210938 193.082031 C 145.765625 193.433594 145.9375 194.160156 145.589844 194.707031 L 142.375 199.777344 C 142.023438 200.3125 141.300781 200.460938 140.75 200.113281 L 127.441406 191.675781 L 89.671875 251.242188 L 101.253906 258.585938 C 101.808594 258.925781 101.984375 259.640625 101.652344 260.183594 C 101.648438 260.1875 101.644531 260.195312 101.644531 260.199219 L 98.425781 265.269531 C 98.074219 265.804688 97.355469 265.953125 96.804688 265.605469 Z M 30.695312 220.917969 L 97.054688 262.992188 L 99.015625 259.898438 L 87.433594 252.550781 C 86.878906 252.199219 86.707031 251.472656 87.054688 250.925781 L 126.058594 189.414062 C 126.40625 188.867188 127.136719 188.710938 127.691406 189.0625 L 140.878906 197.425781 L 142.84375 194.328125 L 126.910156 184.226562 C 126.609375 184.027344 126.414062 183.710938 126.363281 183.363281 C 126.136719 181.566406 125.941406 179.582031 125.867188 177.507812 C 125.707031 175.339844 125.679688 173.171875 125.78125 171.003906 C 125.886719 168.808594 126.199219 166.632812 126.710938 164.503906 C 127.210938 162.359375 128.066406 160.316406 129.238281 158.457031 C 130.695312 156.03125 132.59375 153.898438 134.84375 152.171875 C 136.660156 150.808594 138.78125 149.886719 141.03125 149.480469 C 143.152344 149.125 145.335938 149.257812 147.414062 149.867188 C 152.265625 151.445312 156.632812 154.257812 160.078125 158.023438 C 160.453125 158.429688 160.503906 159.03125 160.203125 159.484375 C 159.894531 159.949219 159.289062 160.117188 158.773438 159.882812 C 156.753906 159.011719 154.628906 158.421875 152.457031 158.128906 C 150.488281 157.875 148.492188 157.929688 146.550781 158.292969 C 144.8125 158.636719 143.160156 159.289062 141.667969 160.21875 C 140.242188 161.132812 139.039062 162.34375 138.132812 163.765625 C 137.089844 165.410156 136.472656 167.289062 136.328125 169.238281 C 136.1875 171.25 136.472656 173.273438 137.164062 175.183594 C 137.984375 177.355469 139.167969 179.378906 140.667969 181.167969 C 142.367188 183.21875 144.386719 184.984375 146.65625 186.390625 C 148.867188 187.816406 151.296875 188.875 153.84375 189.519531 C 156.113281 190.121094 158.460938 190.335938 160.792969 190.167969 C 162.855469 189.996094 164.851562 189.394531 166.648438 188.398438 C 168.355469 187.445312 169.789062 186.082031 170.824219 184.433594 C 172.199219 182.347656 172.941406 179.910156 172.96875 177.398438 C 172.949219 174.828125 172.425781 172.273438 171.425781 169.886719 C 170.335938 167.246094 168.90625 164.753906 167.164062 162.472656 C 165.332031 160.035156 163.332031 157.730469 161.171875 155.570312 C 159.105469 153.511719 156.917969 151.574219 154.625 149.769531 C 152.394531 148.042969 150.339844 146.574219 148.585938 145.460938 C 136.238281 137.632812 125.230469 134.125 115.882812 135.0625 C 106.539062 136 98.464844 141.902344 91.640625 152.664062 L 88.117188 158.222656 C 87.785156 158.765625 87.066406 158.929688 86.515625 158.59375 C 86.511719 158.589844 86.503906 158.585938 86.5 158.582031 L 74.886719 151.21875 L 72.925781 154.316406 L 84.671875 161.765625 C 85.21875 162.113281 85.386719 162.828125 85.046875 163.367188 C 85.042969 163.371094 85.039062 163.375 85.035156 163.378906 L 46.03125 224.894531 C 45.699219 225.4375 44.980469 225.601562 44.429688 225.265625 C 44.425781 225.261719 44.417969 225.257812 44.414062 225.253906 L 32.667969 217.804688 Z M 30.695312 220.917969 " fill-opacity="1" fill-rule="evenodd"/></g></g></g></g></g></g><g clip-path="url(#a02c15f417)"><g clip-path="url(#5eb88029b6)"><g clip-path="url(#3b19b8aa75)"><g clip-path="url(#aca74eefda)"><g clip-path="url(#fe82f2fcab)"><g clip-path="url(#03cba79ff2)"><path fill="#d45f5a" d="M 101.582031 235.140625 L 208.027344 201.089844 L 229.871094 248.808594 L 256.476562 321.34375 L 142.394531 362.738281 Z M 101.582031 235.140625 " fill-opacity="1" fill-rule="evenodd"/></g></g></g></g></g></g><g clip-path="url(#7cc5eb30bd)"><g clip-path="url(#4ad522959b)"><g clip-path="url(#3b7e4b971b)"><g clip-path="url(#ef4caf78d7)"><g clip-path="url(#812be09c94)"><g clip-path="url(#beab0dfe8f)"><path fill="#383d47" d="M 179.84375 230.199219 C 188.035156 227.578125 195.359375 227.269531 201.839844 229.257812 C 208.417969 231.332031 213.898438 235.945312 217.046875 242.078125 C 220.691406 248.648438 222.394531 257.480469 222.171875 268.570312 C 222.0625 278.960938 219.882812 289.222656 215.746094 298.753906 C 212.027344 307.355469 206.601562 315.109375 199.78125 321.542969 C 193.457031 327.539062 185.867188 332.046875 177.566406 334.746094 C 169.316406 337.382812 161.960938 337.699219 155.503906 335.691406 C 148.9375 333.597656 143.46875 328.964844 140.347656 322.820312 C 136.707031 316.25 135.007812 307.433594 135.238281 296.375 C 135.324219 286.003906 137.472656 275.753906 141.558594 266.222656 C 145.257812 257.621094 150.6875 249.871094 157.492188 243.445312 C 163.859375 237.414062 171.492188 232.890625 179.84375 230.199219 Z M 179.433594 249.234375 C 174.65625 250.746094 170.324219 253.4375 166.859375 257.058594 C 163.085938 261.027344 160.203125 265.742188 158.386719 270.902344 C 156.246094 277.050781 155.164062 283.503906 155.148438 290.007812 C 154.984375 297.191406 155.835938 302.941406 157.671875 307.269531 C 159.0625 311.089844 161.929688 314.1875 165.644531 315.851562 C 169.636719 317.28125 174.007812 317.230469 177.976562 315.707031 C 182.753906 314.199219 187.085938 311.503906 190.554688 307.886719 C 194.328125 303.917969 197.207031 299.199219 199.023438 294.039062 C 201.164062 287.894531 202.25 281.441406 202.261719 274.9375 C 202.628906 269.070312 201.773438 263.191406 199.738281 257.675781 C 198.351562 253.855469 195.484375 250.757812 191.765625 249.089844 C 187.773438 247.660156 183.402344 247.710938 179.433594 249.234375 Z M 179.433594 249.234375 " fill-opacity="1" fill-rule="evenodd"/></g></g></g></g></g></g><g clip-path="url(#49d9910c2f)"><g clip-path="url(#29dbef401e)"><g clip-path="url(#9ac79ed641)"><g clip-path="url(#a6b24252c7)"><g clip-path="url(#a53d37e397)"><g clip-path="url(#571cd6bbfe)"><path fill="#f6d2c1" d="M 172.855469 224.0625 C 181.046875 221.441406 188.367188 221.132812 194.851562 223.121094 C 201.429688 225.195312 206.910156 229.808594 210.058594 235.941406 C 213.703125 242.511719 215.40625 251.34375 215.183594 262.433594 C 215.074219 272.824219 212.894531 283.085938 208.753906 292.617188 C 205.039062 301.21875 199.613281 308.972656 192.792969 315.40625 C 186.46875 321.402344 178.878906 325.910156 170.578125 328.609375 C 162.324219 331.246094 154.972656 331.5625 148.515625 329.554688 C 141.949219 327.460938 136.480469 322.828125 133.359375 316.683594 C 129.714844 310.113281 128.019531 301.296875 128.25 290.238281 C 128.335938 279.867188 130.484375 269.617188 134.570312 260.085938 C 138.269531 251.484375 143.699219 243.730469 150.503906 237.304688 C 156.871094 231.277344 164.503906 226.753906 172.855469 224.0625 Z M 172.445312 243.097656 C 167.667969 244.609375 163.335938 247.300781 159.867188 250.921875 C 156.09375 254.890625 153.214844 259.605469 151.398438 264.765625 C 149.257812 270.914062 148.171875 277.367188 148.160156 283.871094 C 147.996094 291.054688 148.847656 296.804688 150.683594 301.128906 C 152.070312 304.953125 154.9375 308.050781 158.65625 309.714844 C 162.648438 311.144531 167.019531 311.09375 170.988281 309.570312 C 175.765625 308.058594 180.097656 305.367188 183.566406 301.75 C 187.339844 297.78125 190.21875 293.0625 192.035156 287.902344 C 194.175781 281.757812 195.261719 275.304688 195.273438 268.800781 C 195.640625 262.933594 194.785156 257.054688 192.75 251.539062 C 191.363281 247.71875 188.492188 244.621094 184.777344 242.953125 C 180.785156 241.523438 176.414062 241.574219 172.445312 243.097656 Z M 172.445312 243.097656 " fill-opacity="1" fill-rule="evenodd"/></g></g></g></g></g></g><g clip-path="url(#abbe04fc89)"><g clip-path="url(#622094622a)"><g clip-path="url(#b02b8f6c70)"><g clip-path="url(#082c0a92e5)"><g clip-path="url(#7bcc835045)"><g clip-path="url(#55fc8b1697)"><path fill="#ac5934" d="M 330.945312 241.152344 C 331.769531 241.261719 332.535156 241.761719 333.375 242.6875 C 334.109375 243.609375 334.785156 244.578125 335.398438 245.585938 C 335.652344 246.035156 335.945312 246.464844 336.269531 246.867188 C 339.902344 250.582031 345.589844 251.703125 350.433594 250.132812 L 352.320312 249.085938 L 344.265625 292.121094 L 337.917969 319.804688 L 329.242188 372.40625 L 325.773438 390.953125 L 205.808594 365.28125 L 209.660156 319.578125 L 229.417969 229.078125 L 233.9375 230.523438 C 237.984375 230.871094 241.734375 230.128906 244.976562 227.433594 C 246.953125 225.769531 248.617188 225.988281 250.292969 227.972656 C 250.546875 228.28125 250.78125 228.589844 251.015625 228.910156 C 253.894531 232.75 257.667969 234.875 262.507812 234.875 C 265.761719 234.871094 268.929688 233.804688 271.535156 231.832031 C 273.675781 230.273438 275.171875 230.464844 276.929688 232.398438 C 277.605469 233.148438 278.214844 233.945312 278.871094 234.710938 C 284.589844 241.40625 293.402344 242.351562 300.4375 237.054688 C 302.117188 235.785156 303.328125 235.792969 304.839844 237.261719 C 305.894531 238.3125 306.890625 239.414062 307.828125 240.570312 C 311.230469 244.660156 315.621094 245.875 320.707031 245.082031 C 323.441406 244.65625 325.804688 243.320312 328.152344 241.957031 C 329.234375 241.320312 330.121094 241.039062 330.945312 241.152344 Z M 330.945312 241.152344 " fill-opacity="1" fill-rule="evenodd"/></g></g></g></g></g></g><g clip-path="url(#0d6aa498b8)"><g clip-path="url(#9336c2fdac)"><g clip-path="url(#b23d570099)"><g clip-path="url(#3bca45d431)"><g clip-path="url(#eb6d7fccb4)"><g clip-path="url(#43897d00d8)"><path fill="#e5d7d9" d="M 235.753906 257.019531 L 276.398438 264.625 L 275.925781 267.152344 L 271.214844 267.3125 C 270.375 267.28125 269.535156 267.410156 268.742188 267.699219 C 268.207031 268.117188 267.878906 268.746094 267.84375 269.425781 L 258.273438 320.566406 C 257.085938 326.136719 256.558594 331.832031 256.699219 337.527344 C 256.773438 341.238281 258.28125 344.773438 260.894531 347.394531 C 263.429688 349.824219 267.484375 351.5625 273.089844 352.609375 C 281.121094 354.113281 287.761719 352.613281 293.015625 348.109375 C 298.269531 343.609375 301.722656 336.976562 303.371094 328.21875 L 312.777344 277.960938 C 312.984375 277.292969 312.90625 276.566406 312.558594 275.960938 C 311.914062 275.34375 311.136719 274.882812 310.285156 274.621094 L 305.839844 272.75 L 306.3125 270.222656 L 325.320312 273.78125 L 324.847656 276.304688 L 320.152344 276.46875 C 319.304688 276.433594 318.460938 276.566406 317.664062 276.855469 C 317.128906 277.269531 316.800781 277.898438 316.765625 278.578125 L 307.53125 327.9375 C 305.382812 338.507812 300.96875 346.347656 294.289062 351.460938 C 287.613281 356.574219 278.132812 357.980469 265.847656 355.683594 C 252.464844 353.175781 243.089844 348.59375 237.71875 341.933594 C 232.347656 335.269531 230.832031 325.796875 233.175781 313.511719 L 242.292969 264.769531 C 242.5 264.105469 242.425781 263.386719 242.09375 262.777344 C 241.449219 262.15625 240.671875 261.699219 239.816406 261.4375 L 235.375 259.5625 Z M 235.753906 257.019531 " fill-opacity="1" fill-rule="evenodd"/></g></g></g></g></g></g><g clip-path="url(#3f1236ab6f)"><g clip-path="url(#97e305780e)"><g clip-path="url(#c213f66a45)"><g clip-path="url(#69864dcf99)"><g clip-path="url(#2ef0bae348)"><g clip-path="url(#d41cd49c00)"><path fill="#e0a1bf" d="M 356.574219 292.683594 L 497.59375 284.046875 L 497.734375 284.71875 C 501.308594 300.980469 504.375 317.566406 506.8125 333.945312 C 511.683594 366.359375 514.433594 399.054688 515.050781 431.828125 L 515.117188 432.589844 L 365.496094 438.765625 L 365.433594 438.003906 C 363.019531 406.546875 360.882812 374.734375 359.148438 343.304688 C 358.21875 326.820312 357.367188 310.128906 356.644531 293.527344 Z M 356.574219 292.683594 " fill-opacity="1" fill-rule="evenodd"/></g></g></g></g></g></g><g clip-path="url(#3746608abd)"><g clip-path="url(#232909faba)"><g clip-path="url(#7bdecfcc38)"><g clip-path="url(#7f99dfa40f)"><g clip-path="url(#1372af4882)"><g clip-path="url(#67e922581b)"><path fill="#43464e" d="M 420.886719 305.59375 C 439.007812 304.066406 453.507812 305.066406 464.390625 308.585938 C 475.273438 312.105469 483.125 317.542969 487.945312 324.902344 C 492.800781 332.253906 495.699219 341.496094 496.636719 352.628906 C 497.707031 362.394531 496.03125 372.265625 491.796875 381.132812 C 487.304688 389.789062 480.261719 396.863281 471.617188 401.410156 C 462.367188 406.546875 450.699219 409.703125 436.621094 410.878906 L 410.433594 413.082031 C 401.539062 413.828125 392.578125 414.582031 383.527344 415.246094 C 382.726562 396.339844 381.636719 378.742188 380.253906 362.457031 C 378.871094 346.175781 377.039062 329.042969 374.761719 311.074219 C 386.160156 309.113281 401.535156 307.289062 420.886719 305.59375 Z M 438.214844 381.847656 C 447.179688 381.09375 452.972656 378.445312 455.59375 373.898438 C 458.210938 369.355469 459.21875 363.292969 458.613281 355.714844 C 458.003906 348.480469 455.855469 342.753906 452.382812 338.539062 C 448.90625 334.324219 442.785156 332.511719 434.121094 333.238281 C 427.113281 333.726562 420.136719 334.605469 413.226562 335.863281 L 417.246094 383.613281 Z M 438.214844 381.847656 " fill-opacity="1" fill-rule="evenodd"/></g></g></g></g></g></g><g clip-path="url(#ddcfdb5092)"><g clip-path="url(#9221b06115)"><g clip-path="url(#e4e3ec9e83)"><g clip-path="url(#d53c79e5b7)"><g clip-path="url(#4ad52d8493)"><g clip-path="url(#7f4d33af51)"><path fill="#c53c31" d="M 429.238281 313.21875 C 447.085938 311.71875 461.375 312.683594 472.105469 316.125 C 482.832031 319.5625 490.566406 324.898438 495.3125 332.128906 C 500.089844 339.34375 502.945312 348.460938 503.886719 359.472656 C 504.917969 369.09375 503.25 378.808594 499.058594 387.53125 C 494.632812 396.074219 487.6875 403.054688 479.164062 407.53125 C 470.03125 412.597656 458.535156 415.707031 444.679688 416.863281 L 418.863281 419.035156 C 410.089844 419.773438 401.265625 420.515625 392.363281 421.164062 C 391.5625 402.507812 390.484375 385.164062 389.136719 369.132812 C 387.785156 353.097656 385.980469 336.214844 383.722656 318.480469 C 394.9375 316.605469 410.109375 314.851562 429.238281 313.21875 Z M 446.320312 388.40625 C 455.152344 387.664062 460.859375 385.050781 463.4375 380.570312 C 466.015625 376.085938 467.007812 370.113281 466.414062 362.644531 C 465.8125 355.5 463.765625 349.851562 460.269531 345.703125 C 456.773438 341.554688 450.78125 339.839844 442.292969 340.554688 C 435.378906 341.03125 428.5 341.894531 421.683594 343.140625 L 425.644531 390.210938 Z M 446.320312 388.40625 " fill-opacity="1" fill-rule="evenodd"/></g></g></g></g></g></g><g clip-path="url(#5aa30e65ad)"><g clip-path="url(#daf635bd2b)"><g clip-path="url(#c2b180c759)"><g clip-path="url(#83dc322ca1)"><g clip-path="url(#a386fbc745)"><g clip-path="url(#3f2036b1e9)"><path fill="#43464e" d="M 444.625 416.867188 L 418.582031 419.058594 C 408.792969 419.882812 400.039062 420.617188 391.84375 421.191406 L 390.707031 421.289062 L 390.613281 420.152344 C 389.820312 401.578125 388.742188 384.152344 387.417969 368.394531 C 386.089844 352.632812 384.261719 335.488281 382.015625 318.015625 L 381.925781 316.960938 L 382.996094 316.871094 C 394.410156 314.964844 409.890625 313.183594 429.015625 311.570312 C 447.09375 310.050781 461.777344 311.019531 472.707031 314.53125 C 483.632812 318.039062 491.78125 323.503906 496.695312 330.902344 C 501.605469 338.300781 504.554688 347.539062 505.488281 358.621094 C 506.464844 368.335938 504.710938 378.136719 500.417969 386.945312 C 495.839844 395.644531 488.671875 402.761719 479.875 407.332031 C 470.585938 412.492188 458.726562 415.679688 444.625 416.867188 Z M 392.796875 418.921875 C 400.664062 418.261719 409.058594 417.652344 418.398438 416.867188 L 444.441406 414.675781 C 458.222656 413.515625 469.789062 410.417969 478.792969 405.464844 C 487.183594 401.09375 494.027344 394.308594 498.421875 386.019531 C 502.554688 377.503906 504.210938 368.027344 503.203125 358.648438 C 502.300781 347.925781 499.472656 338.945312 494.78125 331.941406 C 490.085938 324.941406 482.476562 319.710938 471.960938 316.464844 C 461.441406 313.222656 446.933594 312.1875 429.160156 313.683594 C 410.683594 315.238281 395.636719 316.953125 384.367188 318.78125 C 386.554688 335.960938 388.339844 352.578125 389.65625 368.207031 C 390.96875 383.835938 392.003906 400.730469 392.796875 418.921875 Z M 446.308594 388.496094 L 424.324219 390.347656 L 420.207031 341.4375 L 421.183594 341.222656 C 428.105469 339.964844 435.089844 339.089844 442.109375 338.597656 C 451.046875 337.847656 457.480469 339.726562 461.203125 344.171875 C 464.925781 348.621094 467.023438 354.347656 467.636719 361.640625 C 468.277344 369.285156 467.207031 375.511719 464.449219 380.152344 C 461.695312 384.796875 455.566406 387.71875 446.308594 388.496094 Z M 426.378906 387.96875 L 446.125 386.308594 C 454.59375 385.59375 460.125 383.15625 462.519531 379.039062 C 464.917969 374.925781 466 369.011719 465.398438 361.832031 C 464.820312 354.996094 462.832031 349.542969 459.46875 345.578125 C 456.109375 341.617188 450.464844 340.117188 442.246094 340.808594 C 433.660156 341.53125 427.046875 342.335938 422.5625 343.195312 Z M 426.378906 387.96875 " fill-opacity="1" fill-rule="evenodd"/></g></g></g></g></g></g><g clip-path="url(#41b4dcfbbc)"><g clip-path="url(#7e17b0a341)"><g clip-path="url(#ebf2506c08)"><g clip-path="url(#864aa49a78)"><g clip-path="url(#fc50e42098)"><g clip-path="url(#3e2b46d2ab)"><path fill="#daedc6" d="M 276.984375 196.515625 L 421.746094 150.289062 L 422.050781 151.242188 C 430.441406 185.242188 438.65625 219.820312 446.449219 253.964844 C 449.835938 268.675781 453.109375 283.421875 456.367188 298.171875 L 456.59375 298.886719 L 330.742188 345.140625 Z M 276.984375 196.515625 " fill-opacity="1" fill-rule="evenodd"/></g></g></g></g></g></g><g clip-path="url(#cf180ce626)"><g clip-path="url(#eab732322c)"><g clip-path="url(#657854756b)"><g clip-path="url(#dbb0f8c2e4)"><g clip-path="url(#619afbe602)"><g clip-path="url(#8d9754e7cf)"><path fill="#383d47" d="M 332.894531 198.882812 C 333.335938 198.722656 333.804688 198.640625 334.273438 198.644531 C 334.816406 198.769531 335.308594 199.066406 335.671875 199.492188 L 393.445312 253.996094 L 375.347656 197.324219 C 375.21875 195.992188 375.183594 194.652344 375.238281 193.3125 C 375.332031 192.398438 375.875 191.589844 376.691406 191.167969 L 394.765625 180.320312 C 395.332031 179.910156 395.960938 179.59375 396.625 179.382812 C 397.175781 179.160156 397.800781 179.246094 398.269531 179.605469 C 398.910156 180.289062 399.351562 181.132812 399.554688 182.046875 C 399.742188 183.988281 400.078125 185.910156 400.5625 187.796875 C 401.160156 190.355469 401.886719 193.140625 402.730469 196.167969 C 403.578125 199.195312 404.449219 202.171875 405.371094 205.195312 C 406.296875 208.21875 407.167969 210.8125 407.871094 213.015625 L 409.199219 217.183594 C 410.195312 220.304688 411.289062 223.71875 412.460938 227.390625 C 413.632812 231.0625 414.675781 234.777344 415.835938 238.65625 C 416.992188 242.53125 418.074219 246.234375 419.152344 249.933594 C 420.234375 253.636719 421.230469 257.140625 422.152344 260.40625 L 425.816406 273.398438 C 425.835938 273.636719 425.878906 273.875 425.945312 274.105469 L 426.496094 275.832031 C 426.773438 276.695312 427 277.410156 427.1875 278 C 427.375 278.585938 427.539062 279.101562 427.679688 279.539062 C 427.832031 280 427.941406 280.472656 428.011719 280.953125 C 428.046875 281.40625 427.980469 281.867188 427.8125 282.289062 C 427.578125 282.84375 427.285156 283.371094 426.941406 283.863281 C 426.539062 284.4375 425.988281 285.179688 425.265625 286.078125 C 424.882812 286.582031 424.222656 287.359375 423.265625 288.414062 L 420.160156 291.957031 L 416.644531 295.992188 C 415.417969 297.394531 414.300781 298.640625 413.273438 299.777344 L 410.800781 302.59375 L 409.84375 303.644531 L 357.613281 260.804688 L 368.503906 306.226562 C 368.578125 306.675781 368.628906 307.132812 368.65625 307.589844 C 368.648438 308.136719 368.398438 308.648438 367.972656 308.984375 L 365.929688 310.6875 L 362.515625 313.394531 L 358.390625 316.597656 L 354.261719 319.652344 C 352.949219 320.597656 351.796875 321.414062 350.753906 322.070312 C 350.082031 322.546875 349.355469 322.945312 348.59375 323.265625 C 347.933594 323.484375 347.222656 323.476562 346.566406 323.246094 C 345.816406 322.839844 345.28125 322.121094 345.113281 321.28125 C 343.589844 314.820312 341.976562 307.765625 340.269531 300.109375 C 338.566406 292.453125 336.742188 284.632812 334.796875 276.648438 C 332.910156 268.632812 330.980469 260.644531 329.003906 252.683594 C 327.027344 244.726562 325.101562 237.1875 323.234375 230.070312 C 322.789062 229.429688 322.261719 228.859375 321.660156 228.367188 C 320.675781 227.425781 319.5625 226.40625 318.382812 225.367188 C 317.203125 224.328125 316.066406 223.234375 315.050781 222.261719 C 314.398438 221.710938 313.84375 221.054688 313.398438 220.320312 C 313.296875 219.914062 313.390625 219.480469 313.652344 219.148438 C 314.09375 218.523438 314.578125 217.929688 315.101562 217.371094 L 331.597656 199.5 C 331.820312 199.453125 332.035156 199.382812 332.238281 199.296875 C 332.441406 199.136719 332.664062 199 332.894531 198.882812 Z M 332.894531 198.882812 " fill-opacity="1" fill-rule="evenodd"/></g></g></g></g></g></g><g clip-path="url(#c5c475fc73)"><g clip-path="url(#4cbfa16339)"><g clip-path="url(#11141c8753)"><g clip-path="url(#cc9296d518)"><g clip-path="url(#718aaf1d63)"><g clip-path="url(#37f34584c5)"><path fill="#62af34" d="M 337.296875 187.371094 C 337.738281 187.207031 338.203125 187.125 338.671875 187.132812 C 339.21875 187.257812 339.710938 187.554688 340.074219 187.980469 L 397.84375 242.484375 L 379.75 185.808594 C 379.621094 184.476562 379.582031 183.136719 379.640625 181.800781 C 379.730469 180.882812 380.277344 180.078125 381.09375 179.65625 L 399.167969 168.808594 C 399.730469 168.394531 400.359375 168.078125 401.023438 167.871094 C 401.574219 167.644531 402.199219 167.730469 402.671875 168.09375 C 403.308594 168.777344 403.753906 169.621094 403.957031 170.535156 C 404.140625 172.472656 404.476562 174.394531 404.964844 176.28125 C 405.558594 178.84375 406.285156 181.625 407.132812 184.652344 C 407.976562 187.679688 408.847656 190.660156 409.773438 193.679688 C 410.699219 196.703125 411.566406 199.300781 412.269531 201.503906 L 413.601562 205.667969 C 414.597656 208.789062 415.6875 212.207031 416.859375 215.878906 C 418.03125 219.546875 419.078125 223.261719 420.234375 227.140625 C 421.390625 231.019531 422.472656 234.71875 423.554688 238.421875 C 424.632812 242.121094 425.632812 245.625 426.554688 248.894531 L 430.21875 261.882812 C 430.234375 262.125 430.277344 262.359375 430.34375 262.59375 L 430.894531 264.316406 C 431.171875 265.179688 431.402344 265.898438 431.589844 266.484375 C 431.777344 267.070312 431.941406 267.585938 432.082031 268.027344 C 432.230469 268.484375 432.34375 268.957031 432.410156 269.4375 C 432.445312 269.894531 432.378906 270.351562 432.210938 270.777344 C 431.980469 271.332031 431.6875 271.859375 431.339844 272.347656 C 430.9375 272.921875 430.386719 273.664062 429.664062 274.5625 C 429.285156 275.070312 428.621094 275.847656 427.667969 276.902344 L 424.558594 280.441406 L 421.042969 284.476562 C 419.816406 285.882812 418.703125 287.125 417.671875 288.265625 L 415.199219 291.078125 L 414.246094 292.132812 L 362.015625 249.292969 L 372.90625 294.710938 C 372.980469 295.164062 373.03125 295.621094 373.058594 296.078125 C 373.050781 296.621094 372.796875 297.132812 372.371094 297.46875 L 370.332031 299.171875 L 366.917969 301.882812 L 362.792969 305.082031 L 358.664062 308.140625 C 357.351562 309.085938 356.195312 309.898438 355.15625 310.554688 C 354.480469 311.03125 353.757812 311.433594 352.992188 311.75 C 352.335938 311.972656 351.621094 311.964844 350.96875 311.730469 C 350.214844 311.324219 349.679688 310.605469 349.515625 309.765625 C 347.988281 303.308594 346.375 296.25 344.671875 288.59375 C 342.96875 280.9375 341.144531 273.117188 339.199219 265.132812 C 337.3125 257.117188 335.378906 249.132812 333.402344 241.171875 C 331.425781 233.210938 329.503906 225.671875 327.632812 218.554688 C 327.191406 217.917969 326.664062 217.34375 326.0625 216.851562 C 325.074219 215.914062 323.964844 214.890625 322.785156 213.851562 C 321.601562 212.8125 320.464844 211.71875 319.449219 210.75 C 318.800781 210.195312 318.242188 209.539062 317.800781 208.808594 C 317.699219 208.398438 317.789062 207.964844 318.050781 207.636719 C 318.496094 207.011719 318.980469 206.414062 319.503906 205.855469 L 336 187.984375 C 336.21875 187.9375 336.433594 187.871094 336.640625 187.78125 C 336.84375 187.621094 337.0625 187.484375 337.296875 187.371094 Z M 337.296875 187.371094 " fill-opacity="1" fill-rule="evenodd"/></g></g></g></g></g></g></svg>