<svg xmlns="http://www.w3.org/2000/svg" xmlns:xlink="http://www.w3.org/1999/xlink" width="1000" zoomAndPan="magnify" viewBox="0 0 750 749.999995" height="1000" preserveAspectRatio="xMidYMid meet" version="1.0"><defs><clipPath id="194238cfbe"><path d="M 214.039062 231.3125 L 439.039062 231.3125 L 439.039062 456.3125 L 214.039062 456.3125 Z M 214.039062 231.3125 " clip-rule="nonzero"/></clipPath><clipPath id="5650cac182"><path d="M 326.539062 231.3125 C 264.40625 231.3125 214.039062 281.683594 214.039062 343.8125 C 214.039062 405.945312 264.40625 456.3125 326.539062 456.3125 C 388.671875 456.3125 439.039062 405.945312 439.039062 343.8125 C 439.039062 281.683594 388.671875 231.3125 326.539062 231.3125 " clip-rule="nonzero"/></clipPath><clipPath id="47c2854ebb"><path d="M 202.039062 219.3125 L 427.039062 219.3125 L 427.039062 444.3125 L 202.039062 444.3125 Z M 202.039062 219.3125 " clip-rule="nonzero"/></clipPath><clipPath id="eb50876d8c"><path d="M 314.539062 219.3125 C 252.40625 219.3125 202.039062 269.683594 202.039062 331.8125 C 202.039062 393.945312 252.40625 444.3125 314.539062 444.3125 C 376.671875 444.3125 427.039062 393.945312 427.039062 331.8125 C 427.039062 269.683594 376.671875 219.3125 314.539062 219.3125 " clip-rule="nonzero"/></clipPath><clipPath id="48ef3fc8ec"><path d="M 247.3125 264.585938 L 381.5625 264.585938 L 381.5625 398.835938 L 247.3125 398.835938 Z M 247.3125 264.585938 " clip-rule="nonzero"/></clipPath></defs><g clip-path="url(#194238cfbe)"><g clip-path="url(#5650cac182)"><path fill="#ffffff" d="M 214.039062 231.3125 L 439.039062 231.3125 L 439.039062 456.3125 L 214.039062 456.3125 Z M 214.039062 231.3125 " fill-opacity="1" fill-rule="nonzero"/><path stroke-linecap="butt" transform="matrix(0.75, 0, 0, 0.75, 214.039343, 231.313823)" fill="none" stroke-linejoin="miter" d="M 149.999633 -0.00176417 C 67.155879 -0.00176417 -0.000374559 67.159697 -0.000374559 149.998243 C -0.000374559 232.841997 67.155879 299.99825 149.999633 299.99825 C 232.843387 299.99825 299.99964 232.841997 299.99964 149.998243 C 299.99964 67.159697 232.843387 -0.00176417 149.999633 -0.00176417 " stroke="#000000" stroke-width="8" stroke-opacity="1" stroke-miterlimit="4"/></g></g><g clip-path="url(#47c2854ebb)"><g clip-path="url(#eb50876d8c)"><path fill="#fdda0d" d="M 202.039062 219.3125 L 427.039062 219.3125 L 427.039062 444.3125 L 202.039062 444.3125 Z M 202.039062 219.3125 " fill-opacity="1" fill-rule="nonzero"/><path stroke-linecap="butt" transform="matrix(0.75, 0, 0, 0.75, 202.039344, 219.313824)" fill="none" stroke-linejoin="miter" d="M 149.999632 -0.00176495 C 67.155878 -0.00176495 -0.000375339 67.159697 -0.000375339 149.998242 C -0.000375339 232.841996 67.155878 299.99825 149.999632 299.99825 C 232.843386 299.99825 299.999639 232.841996 299.999639 149.998242 C 299.999639 67.159697 232.843386 -0.00176495 149.999632 -0.00176495 " stroke="#000000" stroke-width="8" stroke-opacity="1" stroke-miterlimit="4"/></g></g><g clip-path="url(#48ef3fc8ec)"><path fill="#000000" d="M 381.5625 330.335938 C 381.5625 339.617188 374.035156 347.144531 364.492188 347.144531 L 331.367188 347.144531 L 331.367188 381.765625 C 331.367188 391.308594 323.839844 398.835938 314.296875 398.835938 C 305.015625 398.835938 297.488281 391.308594 297.488281 381.765625 L 297.488281 347.144531 L 264.382812 347.144531 C 254.839844 347.144531 247.3125 339.617188 247.3125 330.335938 C 247.3125 320.792969 254.839844 313.265625 264.382812 313.265625 L 297.507812 313.265625 L 297.507812 281.65625 C 297.507812 272.113281 305.035156 264.585938 314.316406 264.585938 C 323.863281 264.585938 331.390625 272.113281 331.390625 281.65625 L 331.390625 313.265625 L 364.511719 313.265625 C 374.035156 313.265625 381.5625 320.792969 381.5625 330.335938 Z M 381.5625 330.335938 " fill-opacity="1" fill-rule="nonzero"/></g></svg>