<svg xmlns="http://www.w3.org/2000/svg" xmlns:xlink="http://www.w3.org/1999/xlink" width="1000" zoomAndPan="magnify" viewBox="0 0 750 749.999995" height="1000" preserveAspectRatio="xMidYMid meet" version="1.0"><defs><g/><clipPath id="47f412c23b"><path d="M 211.089844 292.332031 L 511.089844 292.332031 L 511.089844 442.332031 L 211.089844 442.332031 Z M 211.089844 292.332031 " clip-rule="nonzero"/></clipPath><clipPath id="9a7982cdec"><path d="M 199.089844 280.332031 L 499.089844 280.332031 L 499.089844 430.332031 L 199.089844 430.332031 Z M 199.089844 280.332031 " clip-rule="nonzero"/></clipPath></defs><g clip-path="url(#47f412c23b)"><path fill="#000000" d="M 211.089844 292.332031 L 511.089844 292.332031 L 511.089844 442.332031 L 211.089844 442.332031 Z M 211.089844 292.332031 " fill-opacity="1" fill-rule="nonzero"/><path stroke-linecap="butt" transform="matrix(0.75, 0, 0, 0.75, 211.088284, 292.330143)" fill="none" stroke-linejoin="miter" d="M 0.00207918 0.0025172 L 400.002099 0.0025172 L 400.002099 200.002527 L 0.00207918 200.002527 L 0.00207918 0.0025172 " stroke="#000000" stroke-width="8" stroke-opacity="1" stroke-miterlimit="4"/></g><g clip-path="url(#9a7982cdec)"><path fill="#c3b1e1" d="M 199.089844 280.332031 L 499.089844 280.332031 L 499.089844 430.332031 L 199.089844 430.332031 Z M 199.089844 280.332031 " fill-opacity="1" fill-rule="nonzero"/><path stroke-linecap="butt" transform="matrix(0.75, 0, 0, 0.75, 199.088285, 280.330144)" fill="none" stroke-linejoin="miter" d="M 0.0020784 0.00251642 L 400.002098 0.00251642 L 400.002098 200.002526 L 0.0020784 200.002526 L 0.0020784 0.00251642 " stroke="#000000" stroke-width="8" stroke-opacity="1" stroke-miterlimit="4"/></g><g fill="#000000" fill-opacity="1"><g transform="translate(225.155017, 365.711959)"><g><path d="M 29.125 -16.796875 L 29.125 -1.640625 C 26.75 -0.867188 24.5 -0.304688 22.375 0.046875 C 20.25 0.398438 18.460938 0.578125 17.015625 0.578125 C 12.191406 0.578125 8.414062 -0.675781 5.6875 -3.1875 C 2.957031 -5.707031 1.59375 -9.570312 1.59375 -14.78125 C 1.59375 -20.09375 3.023438 -24.066406 5.890625 -26.703125 C 8.765625 -29.347656 12.804688 -30.671875 18.015625 -30.671875 C 20.742188 -30.671875 24.023438 -30.265625 27.859375 -29.453125 C 27.859375 -28.742188 27.785156 -27.6875 27.640625 -26.28125 C 27.492188 -24.882812 27.351562 -23.898438 27.21875 -23.328125 L 25.296875 -23.390625 C 22.960938 -23.460938 21.140625 -23.5 19.828125 -23.5 C 15.890625 -23.5 13.742188 -23.265625 13.390625 -22.796875 C 12.828125 -22.128906 12.429688 -21.085938 12.203125 -19.671875 C 11.972656 -18.253906 11.859375 -16.890625 11.859375 -15.578125 C 11.859375 -13.203125 12.125 -11.359375 12.65625 -10.046875 C 13.1875 -8.734375 14 -7.8125 15.09375 -7.28125 C 16.195312 -6.75 17.6875 -6.484375 19.5625 -6.484375 L 19.78125 -6.484375 L 19.78125 -16.796875 Z M 29.125 -16.796875 "/></g></g></g><g fill="#000000" fill-opacity="1"><g transform="translate(256.144348, 365.711959)"><g><path d="M 17.015625 -6.375 C 17.898438 -6.375 19.546875 -6.460938 21.953125 -6.640625 C 22.273438 -6.640625 22.859375 -6.675781 23.703125 -6.75 L 24.5 -1.28125 C 21.769531 0 18.226562 0.640625 13.875 0.640625 C 9.800781 0.640625 6.671875 -0.382812 4.484375 -2.4375 C 2.304688 -4.5 1.21875 -7.601562 1.21875 -11.75 C 1.21875 -13.875 1.492188 -15.925781 2.046875 -17.90625 C 2.597656 -19.894531 3.226562 -21.28125 3.9375 -22.0625 C 4.675781 -22.84375 6.054688 -23.515625 8.078125 -24.078125 C 10.097656 -24.648438 12.101562 -24.9375 14.09375 -24.9375 C 17.28125 -24.9375 19.671875 -24.367188 21.265625 -23.234375 C 22.859375 -22.097656 23.898438 -20.523438 24.390625 -18.515625 C 24.890625 -16.515625 25.140625 -13.832031 25.140625 -10.46875 C 22.734375 -10.332031 20.378906 -10.265625 18.078125 -10.265625 L 10.53125 -10.265625 C 10.53125 -9.128906 10.765625 -8.273438 11.234375 -7.703125 C 11.710938 -7.140625 12.394531 -6.773438 13.28125 -6.609375 C 14.175781 -6.453125 15.421875 -6.375 17.015625 -6.375 Z M 11.0625 -18.609375 C 10.84375 -18.492188 10.679688 -18.03125 10.578125 -17.21875 C 10.472656 -16.40625 10.398438 -15.484375 10.359375 -14.453125 L 13.125 -14.453125 C 14.789062 -14.453125 16 -14.472656 16.75 -14.515625 C 16.75 -16.210938 16.507812 -17.414062 16.03125 -18.125 C 15.550781 -18.832031 14.726562 -19.1875 13.5625 -19.1875 C 12.601562 -19.1875 11.769531 -18.992188 11.0625 -18.609375 Z M 11.0625 -18.609375 "/></g></g></g><g fill="#000000" fill-opacity="1"><g transform="translate(282.296581, 365.711959)"><g><path d="M 13.453125 -10.046875 C 13.453125 -9.410156 13.46875 -8.742188 13.5 -8.046875 C 13.539062 -7.359375 13.648438 -6.925781 13.828125 -6.75 C 14.066406 -6.5 14.929688 -6.375 16.421875 -6.375 L 18.234375 -6.4375 C 18.554688 -4.726562 18.71875 -2.757812 18.71875 -0.53125 C 18.039062 -0.28125 17.054688 -0.0507812 15.765625 0.15625 C 14.472656 0.375 13.238281 0.484375 12.0625 0.484375 C 9.625 0.484375 7.738281 -0.0546875 6.40625 -1.140625 C 5.070312 -2.222656 4.40625 -3.898438 4.40625 -6.171875 L 4.40625 -19.25 L 0.421875 -19.25 L 0.421875 -24.078125 L 4.40625 -24.453125 L 6.796875 -30.296875 L 13.453125 -30.671875 L 13.453125 -24.453125 L 19.078125 -24.453125 L 19.078125 -19.25 L 13.453125 -19.25 Z M 13.453125 -10.046875 "/></g></g></g><g fill="#000000" fill-opacity="1"><g transform="translate(301.910761, 365.711959)"><g/></g></g><g fill="#000000" fill-opacity="1"><g transform="translate(309.884009, 365.711959)"><g><path d="M 21.953125 -8.296875 C 21.953125 -5.140625 20.953125 -2.867188 18.953125 -1.484375 C 16.953125 -0.109375 14.109375 0.578125 10.421875 0.578125 C 7.828125 0.578125 4.847656 0.207031 1.484375 -0.53125 C 1.554688 -1.238281 1.722656 -2.253906 1.984375 -3.578125 C 2.253906 -4.910156 2.476562 -5.929688 2.65625 -6.640625 C 3.9375 -6.429688 5.351562 -6.265625 6.90625 -6.140625 C 8.46875 -6.015625 9.796875 -5.953125 10.890625 -5.953125 C 11.847656 -5.953125 12.4375 -6.003906 12.65625 -6.109375 C 12.6875 -6.148438 12.726562 -6.25 12.78125 -6.40625 C 12.832031 -6.5625 12.859375 -6.726562 12.859375 -6.90625 C 12.859375 -7.613281 12.414062 -8.09375 11.53125 -8.34375 C 11.25 -8.414062 10.164062 -8.71875 8.28125 -9.25 C 6.40625 -9.78125 4.875 -10.742188 3.6875 -12.140625 C 2.5 -13.546875 1.90625 -15.289062 1.90625 -17.375 C 1.90625 -18.476562 2.15625 -19.703125 2.65625 -21.046875 C 3.15625 -22.390625 3.6875 -23.238281 4.25 -23.59375 C 4.675781 -23.882812 5.703125 -24.179688 7.328125 -24.484375 C 8.960938 -24.785156 10.472656 -24.9375 11.859375 -24.9375 C 14.796875 -24.9375 17.753906 -24.722656 20.734375 -24.296875 C 20.734375 -23.648438 20.644531 -22.570312 20.46875 -21.0625 C 20.289062 -19.5625 20.128906 -18.617188 19.984375 -18.234375 C 16.972656 -18.617188 14.546875 -18.8125 12.703125 -18.8125 C 11.742188 -18.8125 11.125 -18.757812 10.84375 -18.65625 C 10.769531 -18.625 10.695312 -18.523438 10.625 -18.359375 C 10.5625 -18.203125 10.53125 -18 10.53125 -17.75 C 10.53125 -17.257812 10.6875 -16.90625 11 -16.6875 C 11.320312 -16.4375 12.15625 -16.132812 13.5 -15.78125 C 15.09375 -15.320312 16.460938 -14.84375 17.609375 -14.34375 C 18.765625 -13.851562 19.773438 -13.109375 20.640625 -12.109375 C 21.515625 -11.117188 21.953125 -9.847656 21.953125 -8.296875 Z M 21.953125 -8.296875 "/></g></g></g><g fill="#000000" fill-opacity="1"><g transform="translate(332.687475, 365.711959)"><g><path d="M 13.453125 -10.046875 C 13.453125 -9.410156 13.46875 -8.742188 13.5 -8.046875 C 13.539062 -7.359375 13.648438 -6.925781 13.828125 -6.75 C 14.066406 -6.5 14.929688 -6.375 16.421875 -6.375 L 18.234375 -6.4375 C 18.554688 -4.726562 18.71875 -2.757812 18.71875 -0.53125 C 18.039062 -0.28125 17.054688 -0.0507812 15.765625 0.15625 C 14.472656 0.375 13.238281 0.484375 12.0625 0.484375 C 9.625 0.484375 7.738281 -0.0546875 6.40625 -1.140625 C 5.070312 -2.222656 4.40625 -3.898438 4.40625 -6.171875 L 4.40625 -19.25 L 0.421875 -19.25 L 0.421875 -24.078125 L 4.40625 -24.453125 L 6.796875 -30.296875 L 13.453125 -30.671875 L 13.453125 -24.453125 L 19.078125 -24.453125 L 19.078125 -19.25 L 13.453125 -19.25 Z M 13.453125 -10.046875 "/></g></g></g><g fill="#000000" fill-opacity="1"><g transform="translate(352.301656, 365.711959)"><g><path d="M 16.75 0 L 15.890625 -3.34375 C 14.265625 -0.6875 12 0.640625 9.09375 0.640625 C 6.71875 0.640625 4.773438 -0.0195312 3.265625 -1.34375 C 1.765625 -2.675781 1.015625 -4.550781 1.015625 -6.96875 C 1.015625 -8.457031 1.445312 -9.757812 2.3125 -10.875 C 3.175781 -11.988281 4.375 -12.773438 5.90625 -13.234375 C 7.882812 -13.804688 10.945312 -14.125 15.09375 -14.1875 C 15.09375 -16.53125 14.988281 -17.769531 14.78125 -17.90625 C 14.601562 -18.050781 14.035156 -18.125 13.078125 -18.125 C 12.472656 -18.125 11.640625 -18.085938 10.578125 -18.015625 C 8.878906 -17.941406 6.578125 -17.75 3.671875 -17.4375 C 3.390625 -19.351562 3.175781 -21.40625 3.03125 -23.59375 C 4.90625 -23.988281 6.867188 -24.316406 8.921875 -24.578125 C 10.984375 -24.847656 12.828125 -24.984375 14.453125 -24.984375 C 17.296875 -24.984375 19.425781 -24.515625 20.84375 -23.578125 C 22.257812 -22.640625 23.175781 -21.40625 23.59375 -19.875 C 24.019531 -18.351562 24.21875 -16.425781 24.1875 -14.09375 L 24.140625 -6.265625 L 24.296875 0 Z M 12.171875 -5.3125 C 13.097656 -5.3125 14.070312 -5.488281 15.09375 -5.84375 L 15.09375 -9.78125 L 14.671875 -9.78125 C 12.046875 -9.78125 10.59375 -9.640625 10.3125 -9.359375 C 10.132812 -9.179688 10 -8.914062 9.90625 -8.5625 C 9.820312 -8.207031 9.78125 -7.867188 9.78125 -7.546875 C 9.78125 -6.691406 9.972656 -6.101562 10.359375 -5.78125 C 10.753906 -5.46875 11.359375 -5.3125 12.171875 -5.3125 Z M 12.171875 -5.3125 "/></g></g></g><g fill="#000000" fill-opacity="1"><g transform="translate(378.400736, 365.711959)"><g><path d="M 17.328125 -24.984375 C 17.785156 -24.984375 18.269531 -24.929688 18.78125 -24.828125 C 19.300781 -24.722656 19.6875 -24.597656 19.9375 -24.453125 C 19.9375 -23.671875 19.847656 -22.382812 19.671875 -20.59375 C 19.492188 -18.800781 19.332031 -17.535156 19.1875 -16.796875 C 18.832031 -16.828125 18.175781 -16.84375 17.21875 -16.84375 C 14.988281 -16.84375 13.003906 -16.722656 11.265625 -16.484375 L 11.265625 0 L 2.171875 0 L 2.171875 -24.453125 L 9.78125 -24.453125 L 10.84375 -20.515625 L 10.890625 -20.515625 C 11.921875 -21.859375 13.019531 -22.9375 14.1875 -23.75 C 15.363281 -24.570312 16.410156 -24.984375 17.328125 -24.984375 Z M 17.328125 -24.984375 "/></g></g></g><g fill="#000000" fill-opacity="1"><g transform="translate(398.546466, 365.711959)"><g><path d="M 13.453125 -10.046875 C 13.453125 -9.410156 13.46875 -8.742188 13.5 -8.046875 C 13.539062 -7.359375 13.648438 -6.925781 13.828125 -6.75 C 14.066406 -6.5 14.929688 -6.375 16.421875 -6.375 L 18.234375 -6.4375 C 18.554688 -4.726562 18.71875 -2.757812 18.71875 -0.53125 C 18.039062 -0.28125 17.054688 -0.0507812 15.765625 0.15625 C 14.472656 0.375 13.238281 0.484375 12.0625 0.484375 C 9.625 0.484375 7.738281 -0.0546875 6.40625 -1.140625 C 5.070312 -2.222656 4.40625 -3.898438 4.40625 -6.171875 L 4.40625 -19.25 L 0.421875 -19.25 L 0.421875 -24.078125 L 4.40625 -24.453125 L 6.796875 -30.296875 L 13.453125 -30.671875 L 13.453125 -24.453125 L 19.078125 -24.453125 L 19.078125 -19.25 L 13.453125 -19.25 Z M 13.453125 -10.046875 "/></g></g></g><g fill="#000000" fill-opacity="1"><g transform="translate(418.160646, 365.711959)"><g><path d="M 17.015625 -6.375 C 17.898438 -6.375 19.546875 -6.460938 21.953125 -6.640625 C 22.273438 -6.640625 22.859375 -6.675781 23.703125 -6.75 L 24.5 -1.28125 C 21.769531 0 18.226562 0.640625 13.875 0.640625 C 9.800781 0.640625 6.671875 -0.382812 4.484375 -2.4375 C 2.304688 -4.5 1.21875 -7.601562 1.21875 -11.75 C 1.21875 -13.875 1.492188 -15.925781 2.046875 -17.90625 C 2.597656 -19.894531 3.226562 -21.28125 3.9375 -22.0625 C 4.675781 -22.84375 6.054688 -23.515625 8.078125 -24.078125 C 10.097656 -24.648438 12.101562 -24.9375 14.09375 -24.9375 C 17.28125 -24.9375 19.671875 -24.367188 21.265625 -23.234375 C 22.859375 -22.097656 23.898438 -20.523438 24.390625 -18.515625 C 24.890625 -16.515625 25.140625 -13.832031 25.140625 -10.46875 C 22.734375 -10.332031 20.378906 -10.265625 18.078125 -10.265625 L 10.53125 -10.265625 C 10.53125 -9.128906 10.765625 -8.273438 11.234375 -7.703125 C 11.710938 -7.140625 12.394531 -6.773438 13.28125 -6.609375 C 14.175781 -6.453125 15.421875 -6.375 17.015625 -6.375 Z M 11.0625 -18.609375 C 10.84375 -18.492188 10.679688 -18.03125 10.578125 -17.21875 C 10.472656 -16.40625 10.398438 -15.484375 10.359375 -14.453125 L 13.125 -14.453125 C 14.789062 -14.453125 16 -14.472656 16.75 -14.515625 C 16.75 -16.210938 16.507812 -17.414062 16.03125 -18.125 C 15.550781 -18.832031 14.726562 -19.1875 13.5625 -19.1875 C 12.601562 -19.1875 11.769531 -18.992188 11.0625 -18.609375 Z M 11.0625 -18.609375 "/></g></g></g><g fill="#000000" fill-opacity="1"><g transform="translate(444.312878, 365.711959)"><g><path d="M 26.53125 -32.265625 L 26.53125 0 L 19.03125 0 L 18.28125 -4.09375 C 17.570312 -2.707031 16.523438 -1.609375 15.140625 -0.796875 C 13.765625 0.015625 12.207031 0.421875 10.46875 0.421875 C 7.707031 0.421875 5.5 -0.566406 3.84375 -2.546875 C 2.195312 -4.535156 1.375 -7.515625 1.375 -11.484375 C 1.375 -14.492188 1.726562 -16.972656 2.4375 -18.921875 C 3.15625 -20.867188 3.988281 -22.269531 4.9375 -23.125 C 5.539062 -23.65625 6.769531 -24.097656 8.625 -24.453125 C 10.488281 -24.804688 12.148438 -24.984375 13.609375 -24.984375 C 14.878906 -24.984375 16.191406 -24.859375 17.546875 -24.609375 C 17.429688 -26.304688 17.375 -27.242188 17.375 -27.421875 L 17.375 -31.890625 Z M 14.453125 -6.703125 C 15.410156 -6.703125 16.40625 -6.859375 17.4375 -7.171875 L 17.4375 -18.71875 C 16.40625 -18.851562 15.269531 -18.921875 14.03125 -18.921875 C 12.96875 -18.921875 12.296875 -18.832031 12.015625 -18.65625 C 11.617188 -18.375 11.304688 -17.566406 11.078125 -16.234375 C 10.847656 -14.910156 10.734375 -13.519531 10.734375 -12.0625 C 10.734375 -9.90625 11.0625 -8.472656 11.71875 -7.765625 C 12.375 -7.054688 13.285156 -6.703125 14.453125 -6.703125 Z M 14.453125 -6.703125 "/></g></g></g></svg>