<svg xmlns="http://www.w3.org/2000/svg" xmlns:xlink="http://www.w3.org/1999/xlink" width="500" zoomAndPan="magnify" viewBox="0 0 375 374.999991" height="500" preserveAspectRatio="xMidYMid meet" version="1.0"><defs><clipPath id="93c2dbf49c"><path d="M 64 52.039062 L 146.867188 52.039062 L 146.867188 174.289062 L 64 174.289062 Z M 64 52.039062 " clip-rule="nonzero"/></clipPath></defs><g clip-path="url(#93c2dbf49c)"><path fill="#231f20" d="M 146.550781 115.542969 C 146.394531 115.414062 146.261719 115.191406 146.261719 115.042969 C 146.261719 114.898438 146.148438 114.667969 146.003906 114.515625 C 145.671875 114.1875 145.394531 113.527344 145.445312 113.210938 C 145.464844 113.078125 145.234375 112.90625 144.925781 112.839844 C 144.625 112.765625 144.285156 112.597656 144.175781 112.46875 C 144.0625 112.335938 143.675781 112.164062 143.3125 112.085938 C 142.941406 112.023438 142.363281 111.828125 142.011719 111.671875 C 141.664062 111.503906 140.980469 111.328125 140.503906 111.265625 C 140.015625 111.222656 139.566406 111.105469 139.5 111.019531 C 139.339844 110.796875 134.847656 108.554688 134.578125 108.558594 C 134.28125 108.558594 133.558594 108.179688 132.71875 107.566406 C 132.347656 107.285156 131.796875 106.929688 131.511719 106.761719 C 130.4375 106.160156 126.789062 103.285156 125.933594 102.367188 C 125.875 102.3125 125.585938 102.105469 125.285156 101.90625 C 124.980469 101.714844 124.730469 101.421875 124.730469 101.253906 C 124.730469 101.085938 124.640625 101.007812 124.523438 101.074219 C 124.144531 101.316406 121.609375 99.03125 119.410156 96.457031 C 118.949219 95.917969 118.21875 95.074219 117.796875 94.578125 C 117.367188 94.085938 116.769531 93.230469 116.472656 92.679688 C 116.171875 92.128906 115.816406 91.546875 115.683594 91.378906 C 115.546875 91.214844 115.28125 90.726562 115.097656 90.277344 C 114.910156 89.84375 114.628906 89.257812 114.476562 88.984375 C 114.316406 88.714844 113.984375 88.128906 113.730469 87.683594 C 113.3125 86.9375 113.09375 86.371094 112 83.308594 C 111.769531 82.667969 111.488281 82.023438 111.371094 81.882812 C 111.261719 81.746094 111.074219 81.0625 110.957031 80.363281 C 110.832031 79.667969 110.625 78.914062 110.492188 78.699219 C 110.355469 78.476562 110.191406 77.984375 110.132812 77.601562 C 109.996094 76.699219 109.839844 76.042969 109.691406 75.808594 C 109.628906 75.699219 109.53125 75.238281 109.464844 74.761719 C 109.402344 74.285156 109.285156 73.621094 109.195312 73.285156 C 109.113281 72.949219 109.050781 72.453125 109.066406 72.191406 C 109.085938 71.917969 109.015625 71.644531 108.914062 71.578125 C 108.8125 71.503906 108.710938 70.902344 108.679688 70.238281 C 108.652344 69.570312 108.5625 68.925781 108.480469 68.789062 C 108.261719 68.429688 108.179688 55.347656 108.394531 55.214844 C 108.496094 55.152344 108.464844 54.886719 108.316406 54.597656 C 108.152344 54.28125 108.117188 53.933594 108.21875 53.65625 C 108.300781 53.417969 108.296875 53.226562 108.203125 53.226562 C 108.117188 53.226562 107.992188 53.058594 107.941406 52.84375 C 107.765625 52.191406 107.195312 52.035156 106.195312 52.359375 C 105.703125 52.535156 105.230469 52.777344 105.148438 52.898438 C 105.074219 53.023438 105.007812 53.039062 105 52.945312 C 105 52.84375 104.816406 52.921875 104.597656 53.125 C 104.242188 53.453125 104.207031 53.65625 104.308594 55.269531 C 104.390625 56.496094 104.351562 57.140625 104.191406 57.339844 C 104.03125 57.523438 104.027344 57.617188 104.164062 57.617188 C 104.308594 57.617188 104.363281 58.550781 104.339844 60.417969 C 104.320312 61.957031 104.230469 63.214844 104.144531 63.214844 C 104.0625 63.214844 104 63.550781 104.023438 63.957031 C 104.039062 64.375 103.910156 65.261719 103.726562 65.933594 C 103.554688 66.609375 103.40625 67.429688 103.40625 67.761719 C 103.40625 68.09375 103.273438 68.464844 103.105469 68.605469 C 102.949219 68.738281 102.859375 68.933594 102.925781 69.035156 C 102.980469 69.125 102.941406 69.507812 102.828125 69.855469 C 102.617188 70.496094 102.511719 71.140625 102.328125 72.699219 C 102.242188 73.449219 101.96875 74.6875 101.316406 77.398438 C 101.164062 78 100.898438 79.128906 100.714844 79.894531 C 100.335938 81.53125 99.621094 83.804688 99.398438 84.097656 C 99.316406 84.207031 98.941406 85.054688 98.5625 85.996094 C 97.800781 87.882812 97.296875 89.039062 96.925781 89.78125 C 96.789062 90.054688 96.570312 90.625 96.433594 91.039062 C 96.304688 91.457031 95.847656 92.472656 95.421875 93.304688 C 94.703125 94.703125 94.457031 95.046875 93.304688 96.289062 C 93.074219 96.546875 92.847656 96.839844 92.808594 96.945312 C 92.675781 97.300781 90.015625 100.042969 89.1875 100.675781 C 88.722656 101.035156 87.851562 101.792969 87.253906 102.378906 C 86.65625 102.953125 85.886719 103.546875 85.546875 103.6875 C 85.207031 103.828125 84.820312 104.085938 84.675781 104.257812 C 84.535156 104.433594 84.332031 104.570312 84.230469 104.570312 C 84.125 104.570312 83.722656 104.816406 83.335938 105.105469 C 82.945312 105.402344 82.503906 105.667969 82.347656 105.695312 C 82.191406 105.710938 81.914062 105.914062 81.726562 106.132812 C 81.371094 106.542969 75.921875 109.914062 75.453125 110.007812 C 75.3125 110.03125 75.152344 110.121094 75.097656 110.1875 C 74.929688 110.402344 70.027344 112.722656 69.40625 112.875 C 69.082031 112.964844 68.441406 113.1875 67.980469 113.398438 C 67.507812 113.605469 66.902344 113.722656 66.589844 113.671875 C 66.292969 113.617188 65.992188 113.648438 65.933594 113.746094 C 65.878906 113.84375 65.648438 113.953125 65.429688 113.988281 C 64.320312 114.1875 63.671875 116.066406 64.449219 116.851562 C 64.683594 117.089844 64.910156 117.386719 64.957031 117.519531 C 65.070312 117.886719 66.929688 118.308594 68.570312 118.347656 C 70.492188 118.390625 71.355469 118.472656 72.90625 118.722656 C 75.355469 119.125 75.695312 119.207031 75.695312 119.386719 C 75.695312 119.496094 75.789062 119.515625 75.890625 119.449219 C 76.128906 119.304688 78.796875 120.132812 80.328125 120.832031 C 80.945312 121.117188 81.597656 121.355469 81.761719 121.355469 C 81.933594 121.355469 82.074219 121.4375 82.074219 121.550781 C 82.074219 121.664062 82.183594 121.746094 82.328125 121.746094 C 82.59375 121.753906 84.78125 122.832031 85.160156 123.144531 C 85.292969 123.257812 85.46875 123.28125 85.546875 123.203125 C 85.628906 123.113281 85.796875 123.191406 85.929688 123.371094 C 86.058594 123.539062 86.519531 123.910156 86.960938 124.191406 C 87.816406 124.738281 88.679688 125.496094 88.972656 125.957031 C 89.070312 126.113281 89.386719 126.382812 89.679688 126.539062 C 90.539062 127.03125 92.027344 128.519531 92.503906 129.339844 C 92.742188 129.765625 93.308594 130.519531 93.773438 131.023438 C 94.226562 131.523438 94.664062 132.113281 94.730469 132.328125 C 94.9375 132.980469 96.449219 136.015625 96.726562 136.339844 C 96.867188 136.496094 97.097656 137.171875 97.226562 137.828125 C 97.363281 138.488281 97.597656 139.203125 97.746094 139.441406 C 98.0625 139.921875 99.042969 142.847656 99.527344 144.722656 C 99.707031 145.441406 99.992188 146.183594 100.164062 146.375 C 100.335938 146.566406 100.433594 146.777344 100.367188 146.835938 C 100.308594 146.890625 100.480469 147.765625 100.746094 148.769531 C 101.007812 149.769531 101.183594 150.695312 101.132812 150.839844 C 101.082031 150.972656 101.140625 151.128906 101.265625 151.171875 C 101.386719 151.207031 101.488281 151.578125 101.488281 151.980469 C 101.488281 152.386719 101.554688 152.71875 101.625 152.71875 C 101.753906 152.71875 102.035156 154.066406 102.105469 155.027344 C 102.128906 155.253906 102.183594 155.519531 102.25 155.621094 C 102.3125 155.730469 102.417969 156.273438 102.484375 156.84375 C 102.546875 157.410156 102.65625 158.015625 102.726562 158.199219 C 102.800781 158.386719 102.75 158.511719 102.59375 158.511719 C 102.433594 158.511719 102.46875 158.613281 102.695312 158.769531 C 103.109375 159.078125 103.269531 160.386719 103.007812 161.308594 C 102.890625 161.703125 102.902344 161.90625 103.042969 161.90625 C 103.160156 161.90625 103.210938 162.128906 103.160156 162.402344 C 103.105469 162.667969 103.132812 162.847656 103.214844 162.796875 C 103.292969 162.753906 103.367188 163.09375 103.367188 163.550781 C 103.367188 164.019531 103.421875 164.804688 103.488281 165.304688 C 103.703125 166.894531 103.734375 168.691406 103.554688 168.75 C 103.457031 168.78125 103.488281 169.0625 103.625 169.367188 C 103.832031 169.816406 103.832031 169.964844 103.632812 170.085938 C 103.480469 170.175781 103.429688 170.433594 103.496094 170.714844 C 103.558594 170.980469 103.644531 171.492188 103.683594 171.84375 C 103.777344 172.714844 104.722656 173.949219 105.1875 173.792969 C 105.382812 173.738281 105.65625 173.824219 105.792969 173.992188 L 105.800781 173.984375 C 105.933594 174.152344 106.121094 174.289062 106.207031 174.289062 C 106.53125 174.289062 108.09375 172.964844 108.101562 172.683594 C 108.109375 172.527344 108.21875 172.199219 108.351562 171.957031 C 108.660156 171.390625 108.652344 171.085938 108.328125 171.085938 C 108.195312 171.085938 108.066406 170.90625 108.042969 170.671875 C 108.011719 170.257812 108.015625 170.257812 108.441406 170.625 C 108.851562 170.980469 108.851562 170.976562 108.410156 170.34375 C 108.148438 169.964844 108.066406 169.691406 108.199219 169.691406 C 108.382812 169.691406 108.390625 169.625 108.207031 169.410156 C 108.074219 169.257812 107.917969 168.46875 107.863281 167.660156 C 107.804688 166.859375 107.707031 166.0625 107.640625 165.898438 C 107.582031 165.734375 107.5625 165.511719 107.589844 165.398438 C 107.65625 165.210938 107.753906 160.386719 107.808594 154.511719 C 107.832031 152.601562 107.933594 151.410156 108.109375 151.003906 C 108.261719 150.640625 108.34375 149.878906 108.300781 149.109375 C 108.269531 148.398438 108.328125 147.710938 108.433594 147.578125 C 108.535156 147.441406 108.589844 147.21875 108.535156 147.070312 C 108.488281 146.9375 108.570312 146.46875 108.71875 146.050781 C 108.871094 145.617188 108.984375 145.027344 108.984375 144.722656 C 108.984375 143.828125 110.058594 139.875 110.425781 139.441406 C 110.507812 139.339844 110.582031 139.058594 110.582031 138.808594 C 110.582031 138.574219 110.71875 138.265625 110.878906 138.125 C 111.050781 137.992188 111.308594 137.449219 111.464844 136.933594 C 111.792969 135.8125 112.261719 134.859375 112.902344 134.011719 C 113.167969 133.675781 113.375 133.328125 113.375 133.238281 C 113.375 132.914062 115.171875 129.382812 115.460938 129.148438 C 115.628906 129.007812 115.769531 128.824219 115.769531 128.730469 C 115.769531 128.636719 116.03125 128.164062 116.363281 127.675781 C 116.691406 127.183594 116.960938 126.707031 116.960938 126.605469 C 116.960938 126.507812 117.117188 126.292969 117.3125 126.113281 C 117.503906 125.945312 117.828125 125.566406 118.03125 125.269531 C 118.238281 124.988281 118.472656 124.792969 118.558594 124.84375 C 118.640625 124.898438 118.875 124.71875 119.074219 124.4375 C 119.285156 124.167969 119.554688 123.945312 119.691406 123.945312 C 119.828125 123.945312 120.027344 123.761719 120.148438 123.550781 C 120.347656 123.1875 121.964844 122.28125 122.492188 122.257812 C 122.617188 122.246094 122.855469 122.078125 123.007812 121.863281 C 123.191406 121.613281 123.421875 121.523438 123.707031 121.601562 C 123.949219 121.664062 124.136719 121.640625 124.136719 121.550781 C 124.136719 121.324219 125.664062 120.546875 126.097656 120.546875 C 126.292969 120.546875 126.539062 120.460938 126.640625 120.363281 C 126.828125 120.175781 129.097656 119.542969 129.769531 119.496094 C 129.964844 119.480469 130.121094 119.386719 130.121094 119.296875 C 130.121094 119.203125 130.210938 119.179688 130.320312 119.257812 C 130.433594 119.324219 130.816406 119.277344 131.167969 119.171875 C 132.210938 118.832031 132.949219 118.707031 134.003906 118.648438 C 134.550781 118.628906 135.410156 118.492188 135.902344 118.355469 C 136.398438 118.21875 137.246094 118.066406 137.800781 118.015625 C 139.203125 117.886719 139.542969 117.832031 139.945312 117.660156 C 140.425781 117.449219 142.421875 117.660156 142.789062 117.960938 C 142.941406 118.089844 143.417969 118.234375 143.828125 118.257812 C 144.234375 118.296875 144.910156 118.367188 145.320312 118.414062 C 145.875 118.480469 146.070312 118.4375 146.070312 118.234375 C 146.070312 118.078125 146.148438 117.953125 146.238281 117.953125 C 146.398438 117.953125 146.628906 117.226562 146.773438 116.210938 C 146.804688 115.976562 146.707031 115.671875 146.550781 115.542969 Z M 135.785156 114.382812 C 135.679688 114.390625 134.972656 114.4375 134.207031 114.480469 C 133.421875 114.53125 132.617188 114.695312 132.347656 114.878906 C 132.085938 115.054688 131.6875 115.152344 131.476562 115.089844 C 131.261719 115.03125 130.359375 115.199219 129.476562 115.472656 C 128.59375 115.734375 127.789062 115.898438 127.691406 115.839844 C 127.585938 115.773438 127.375 115.832031 127.21875 115.960938 C 127.054688 116.097656 126.925781 116.132812 126.925781 116.054688 C 126.925781 115.976562 126.808594 116 126.667969 116.121094 C 126.53125 116.246094 126.109375 116.394531 125.738281 116.460938 C 125.367188 116.523438 124.996094 116.617188 124.902344 116.671875 C 124.8125 116.730469 124.542969 116.8125 124.3125 116.859375 C 124.078125 116.902344 123.535156 117.121094 123.105469 117.347656 C 122.675781 117.570312 122.195312 117.757812 122.03125 117.757812 C 121.878906 117.757812 121.742188 117.832031 121.742188 117.9375 C 121.742188 118.042969 121.476562 118.179688 121.144531 118.246094 C 120.8125 118.324219 120.546875 118.472656 120.546875 118.582031 C 120.546875 118.683594 120.457031 118.71875 120.339844 118.648438 C 120.230469 118.582031 119.886719 118.796875 119.574219 119.128906 C 119.261719 119.460938 118.644531 119.875 118.199219 120.054688 C 117.75 120.238281 117.34375 120.5 117.285156 120.652344 C 117.230469 120.792969 116.917969 120.972656 116.597656 121.042969 C 116.246094 121.117188 115.960938 121.332031 115.902344 121.5625 C 115.84375 121.773438 115.546875 122.066406 115.234375 122.203125 C 114.863281 122.359375 114.644531 122.617188 114.613281 122.9375 C 114.585938 123.207031 114.433594 123.5625 114.277344 123.742188 C 114.125 123.910156 113.894531 124.269531 113.78125 124.542969 C 113.664062 124.820312 113.410156 125.292969 113.222656 125.578125 C 113.027344 125.875 112.488281 126.742188 112.027344 127.515625 C 111.5625 128.28125 111.058594 129.035156 110.917969 129.175781 C 110.78125 129.328125 110.503906 129.871094 110.300781 130.40625 C 110.097656 130.933594 109.632812 131.945312 109.261719 132.664062 C 108.894531 133.378906 108.589844 134.085938 108.589844 134.226562 C 108.589844 134.371094 108.46875 134.542969 108.328125 134.59375 C 108.1875 134.640625 107.941406 135.089844 107.78125 135.5625 C 107.628906 136.046875 107.386719 136.554688 107.246094 136.699219 C 107.109375 136.84375 106.992188 137.125 106.992188 137.328125 C 106.992188 137.519531 106.851562 138.03125 106.671875 138.445312 C 106.097656 139.828125 105.117188 143.765625 104.929688 145.4375 L 104.929688 145.441406 C 104.890625 145.773438 104.777344 146.195312 104.671875 146.375 C 104.527344 146.648438 104.460938 146.621094 104.246094 146.171875 C 104.109375 145.882812 104 145.574219 104 145.496094 C 104 145.417969 103.894531 145.09375 103.765625 144.789062 C 103.636719 144.480469 103.503906 144.035156 103.480469 143.796875 C 103.351562 142.734375 101.464844 136.992188 101.183594 136.816406 C 101.085938 136.757812 101.007812 136.484375 101.007812 136.203125 C 101.007812 135.609375 99.667969 132.710938 99.285156 132.484375 C 99.140625 132.386719 99.019531 132.160156 99.019531 131.957031 C 99.019531 131.753906 98.882812 131.480469 98.71875 131.335938 C 98.554688 131.203125 98.417969 130.96875 98.417969 130.8125 C 98.417969 130.042969 93.746094 123.757812 93.175781 123.753906 C 93.015625 123.753906 92.785156 123.550781 90.988281 121.863281 C 90.464844 121.378906 89.859375 120.917969 89.640625 120.855469 C 89.425781 120.78125 89.25 120.640625 89.25 120.539062 C 89.25 120.4375 89.121094 120.351562 88.964844 120.351562 C 88.808594 120.351562 88.652344 120.269531 88.621094 120.175781 C 88.542969 119.964844 87.5625 119.363281 86.261719 118.71875 C 85.765625 118.472656 85.238281 118.152344 85.097656 118.015625 C 84.957031 117.875 84.597656 117.707031 84.300781 117.640625 C 84.007812 117.574219 83.503906 117.402344 83.171875 117.257812 C 81.203125 116.414062 79.707031 115.898438 79.160156 115.855469 C 78.816406 115.832031 78.425781 115.746094 78.285156 115.652344 C 78.148438 115.574219 77.402344 115.378906 76.632812 115.234375 C 75.863281 115.089844 75.1875 114.917969 75.132812 114.867188 C 74.980469 114.707031 75.703125 114.203125 76.292969 114.054688 C 76.5625 113.988281 76.828125 113.863281 76.890625 113.796875 C 76.941406 113.71875 77.664062 113.308594 78.488281 112.875 C 79.3125 112.449219 80.023438 112.042969 80.082031 111.976562 C 80.132812 111.910156 80.425781 111.746094 80.734375 111.609375 C 81.027344 111.484375 81.277344 111.28125 81.277344 111.167969 C 81.277344 111.054688 81.394531 110.960938 81.535156 110.960938 C 81.671875 110.960938 82.097656 110.695312 82.476562 110.371094 C 82.859375 110.042969 83.285156 109.773438 83.425781 109.773438 C 83.566406 109.773438 83.726562 109.628906 83.792969 109.464844 C 83.859375 109.300781 83.980469 109.210938 84.066406 109.261719 C 84.152344 109.3125 84.332031 109.222656 84.46875 109.066406 C 84.605469 108.898438 84.859375 108.761719 85.039062 108.761719 C 85.214844 108.761719 85.585938 108.582031 85.863281 108.359375 C 86.136719 108.136719 86.851562 107.59375 87.453125 107.15625 C 88.050781 106.71875 89.085938 105.828125 89.765625 105.1875 C 90.433594 104.542969 91.164062 103.917969 91.394531 103.796875 C 91.851562 103.546875 93.15625 102.253906 94.277344 100.9375 C 95.742188 99.226562 96.226562 98.625 96.226562 98.515625 C 96.226562 98.445312 96.441406 98.164062 96.699219 97.882812 C 96.964844 97.589844 97.503906 96.761719 97.898438 96.019531 C 98.296875 95.289062 98.902344 94.1875 99.246094 93.578125 C 99.582031 92.972656 100.035156 91.988281 100.242188 91.390625 C 100.714844 90.019531 101.742188 87.386719 102.265625 86.1875 C 102.722656 85.152344 103.589844 82.679688 103.707031 82.09375 C 103.871094 81.261719 104.84375 77.050781 105.148438 75.832031 L 105.46875 74.558594 L 105.746094 75.53125 C 106.339844 77.582031 106.414062 77.925781 106.472656 78.617188 C 106.503906 79.015625 106.578125 79.417969 106.628906 79.515625 C 106.679688 79.613281 106.84375 80.105469 106.992188 80.59375 C 107.144531 81.09375 107.335938 81.578125 107.425781 81.679688 C 107.515625 81.785156 107.585938 82.085938 107.585938 82.34375 C 107.585938 82.605469 107.855469 83.464844 108.179688 84.257812 C 108.503906 85.042969 108.828125 85.960938 108.90625 86.285156 C 109.058594 86.949219 110.441406 89.757812 111.613281 91.78125 C 111.707031 91.953125 111.921875 92.402344 112.089844 92.78125 C 112.929688 94.664062 113.292969 95.292969 114.441406 96.824219 C 115.792969 98.625 119.378906 102.378906 120.101562 102.75 C 120.347656 102.882812 120.546875 103.097656 120.546875 103.234375 C 120.546875 103.367188 120.8125 103.644531 121.144531 103.839844 C 121.476562 104.03125 121.746094 104.273438 121.746094 104.378906 C 121.746094 104.472656 121.992188 104.691406 122.292969 104.851562 C 122.59375 105.019531 123.382812 105.671875 124.046875 106.316406 C 124.714844 106.964844 125.546875 107.605469 125.894531 107.75 C 126.242188 107.898438 126.53125 108.09375 126.53125 108.183594 C 126.53125 108.445312 128.40625 110.363281 128.652344 110.363281 C 128.777344 110.363281 128.972656 110.488281 129.09375 110.636719 C 129.21875 110.785156 130.109375 111.285156 131.070312 111.75 C 132.019531 112.222656 132.96875 112.75 133.164062 112.925781 C 133.367188 113.09375 133.722656 113.269531 133.960938 113.300781 C 134.203125 113.339844 134.429688 113.460938 134.46875 113.5625 C 134.507812 113.671875 134.683594 113.761719 134.871094 113.761719 C 135.230469 113.769531 136.089844 114.339844 135.785156 114.382812 Z M 135.785156 114.382812 " fill-opacity="1" fill-rule="nonzero"/></g></svg>